<?xml version="1.0" encoding="utf-8"?>
<!-- Generator: Adobe Illustrator 27.0.0, SVG Export Plug-In . SVG Version: 6.00 Build 0)  -->
<svg version="1.1" id="Layer_1" xmlns="http://www.w3.org/2000/svg" xmlns:xlink="http://www.w3.org/1999/xlink" x="0px" y="0px"
	 viewBox="0 0 787.9 100.9" style="enable-background:new 0 0 787.9 100.9;" xml:space="preserve">
<style type="text/css">
	.st0{fill:#FFFFFF;}
	.st1{fill:#7B868C;}
	.st2{fill:url(#SVGID_1_);}
	.st3{fill:url(#SVGID_00000137101013904371086560000003309629549652847268_);}
	.st4{fill:url(#SVGID_00000128485119533618928480000009057962328104792504_);}
	.st5{fill:url(#SVGID_00000026851212789288840760000017270676366675856044_);}
	.st6{fill:url(#SVGID_00000088111691447950362010000017472395598799584432_);}
	.st7{fill:url(#SVGID_00000002344087456294542270000003567264638690497428_);}
	.st8{fill:#74868C;}
	.st9{fill:url(#SVGID_00000125601845196552198240000016993540975097110166_);}
	.st10{fill:url(#SVGID_00000026878229114686974330000004277565999980569506_);}
	.st11{fill:#FFC10E;}
	.st12{fill:#EF6386;}
	.st13{fill:#00A84F;}
	.st14{fill:#00A7E1;}
	.st15{fill:#492F91;}
</style>
<g>
	<g>
		<path class="st0" d="M514.8,40.8c-0.1,0-0.2-0.1-0.1-0.2l2.8-6.3c0-0.1,0.1-0.1,0.2-0.1h1.1c0.1,0,0.2,0.1,0.2,0.1l2.8,6.3v0.2
			l-0.1,0.1h-1.2c-0.1,0-0.2-0.1-0.2-0.1l-0.5-1.2h-3l-0.5,1.2c0,0.1-0.1,0.1-0.2,0.1L514.8,40.8L514.8,40.8L514.8,40.8z
			 M517.2,38.2h2l-1-2.4L517.2,38.2z"/>
		<g>
			<path class="st0" d="M527.4,36.2c0.1,0,0.2,0.1,0.2,0.2v4.5c0,0.7-0.2,1.2-0.7,1.6c-0.5,0.4-1.1,0.6-1.8,0.6s-1.3-0.2-1.7-0.5
				c-0.5-0.3-0.7-0.7-0.8-1.3c0-0.1,0-0.2,0.2-0.2h1.1c0.1,0,0.2,0.1,0.2,0.1c0.1,0.2,0.2,0.3,0.4,0.5s0.4,0.2,0.7,0.2
				s0.6-0.1,0.8-0.3s0.3-0.5,0.3-0.8v-0.4c-0.4,0.3-0.8,0.4-1.3,0.4c-0.7,0-1.3-0.2-1.8-0.7s-0.7-1-0.7-1.8c0-0.7,0.2-1.3,0.7-1.8
				s1.1-0.7,1.8-0.7c0.5,0,1,0.1,1.4,0.4v-0.1c0-0.1,0.1-0.2,0.2-0.2L527.4,36.2L527.4,36.2L527.4,36.2z M525,39.8
				c0.4,0,0.6-0.1,0.9-0.4c0.2-0.3,0.3-0.6,0.3-1s-0.1-0.7-0.3-1c-0.2-0.2-0.5-0.4-0.9-0.4s-0.7,0.1-0.9,0.4c-0.2,0.3-0.3,0.6-0.3,1
				s0.1,0.7,0.3,1S524.6,39.8,525,39.8z"/>
			<path class="st0" d="M531.2,40.9c-0.8,0-1.4-0.2-1.9-0.7s-0.7-1-0.7-1.8c0-0.7,0.2-1.3,0.7-1.8s1.1-0.7,1.8-0.7s1.4,0.2,1.8,0.7
				c0.5,0.4,0.7,1,0.7,1.8v0.4c0,0.1-0.1,0.2-0.2,0.2H530c0.1,0.3,0.2,0.5,0.5,0.7c0.2,0.2,0.5,0.3,0.8,0.3c0.4,0,0.6-0.1,0.8-0.3
				c0.1-0.1,0.2-0.1,0.2-0.1h1.1c0.1,0,0.1,0,0.2,0.1v0.1c-0.2,0.4-0.5,0.7-0.8,0.9C532.2,40.8,531.7,40.9,531.2,40.9z M530,38.1
				h2.3c0-0.3-0.1-0.5-0.3-0.7s-0.5-0.3-0.8-0.3s-0.6,0.1-0.8,0.3C530.1,37.5,530,37.8,530,38.1L530,38.1z"/>
			<path class="st0" d="M537.8,36c0.6,0,1.1,0.2,1.5,0.6c0.4,0.4,0.6,0.9,0.6,1.5v2.5c0,0.1-0.1,0.2-0.2,0.2h-1.1
				c-0.1,0-0.2-0.1-0.2-0.2v-2.3c0-0.3-0.1-0.6-0.3-0.8s-0.4-0.3-0.7-0.3s-0.6,0.1-0.8,0.3s-0.3,0.4-0.3,0.7v2.3
				c0,0.1-0.1,0.2-0.2,0.2H535c-0.1,0-0.2-0.1-0.2-0.2v-3c0-0.3-0.1-0.4-0.4-0.4h-0.2c-0.1,0-0.2-0.1-0.2-0.2v-0.8
				c0-0.1,0.1-0.2,0.1-0.2c0.2-0.1,0.4-0.1,0.7-0.1c0.5,0,0.9,0.2,1.1,0.6C536.6,36.2,537.1,36,537.8,36L537.8,36z"/>
			<path class="st0" d="M543.4,40.9c-0.8,0-1.4-0.2-1.9-0.7s-0.7-1-0.7-1.8c0-0.7,0.2-1.3,0.7-1.8c0.5-0.4,1.1-0.7,1.9-0.7
				c0.6,0,1.2,0.2,1.6,0.5c0.4,0.3,0.7,0.7,0.8,1.3c0,0.1,0,0.2-0.2,0.2h-1c-0.1,0-0.2-0.1-0.2-0.2c-0.1-0.2-0.2-0.3-0.4-0.4
				c-0.2-0.1-0.4-0.2-0.6-0.2c-0.4,0-0.7,0.1-0.9,0.4c-0.2,0.2-0.3,0.6-0.3,1s0.1,0.7,0.3,0.9s0.5,0.4,0.9,0.4
				c0.3,0,0.5-0.1,0.7-0.2c0.2-0.1,0.3-0.3,0.4-0.5c0.1-0.1,0.1-0.2,0.2-0.2h1c0.1,0,0.2,0.1,0.2,0.2c-0.1,0.5-0.4,0.9-0.8,1.3
				C544.6,40.8,544,40.9,543.4,40.9z"/>
		</g>
		<path class="st0" d="M548.1,35.1c-0.2,0.2-0.4,0.2-0.6,0.2s-0.4-0.1-0.6-0.2c-0.2-0.2-0.2-0.3-0.2-0.6c0-0.2,0.1-0.4,0.2-0.6
			c0.2-0.2,0.4-0.2,0.6-0.2s0.4,0.1,0.6,0.2c0.2,0.2,0.2,0.3,0.2,0.6S548.2,34.9,548.1,35.1z M546.9,40.8c-0.1,0-0.2-0.1-0.2-0.2
			v-4.2c0-0.1,0.1-0.2,0.2-0.2h1.1c0.1,0,0.2,0.1,0.2,0.2v4.2c0,0.1-0.1,0.2-0.2,0.2H546.9z"/>
		<g>
			<path class="st0" d="M555.3,40.6c0,0.1,0,0.2-0.2,0.2c-0.3,0.1-0.5,0.1-0.7,0.1c-0.6,0-1-0.2-1.2-0.6c-0.4,0.4-1,0.6-1.6,0.6
				c-0.7,0-1.3-0.2-1.8-0.7s-0.7-1-0.7-1.8c0-0.7,0.2-1.3,0.7-1.8s1.1-0.7,1.8-0.7c0.5,0,1,0.1,1.4,0.4v-0.1c0-0.1,0.1-0.2,0.2-0.2
				h1c0.1,0,0.2,0.1,0.2,0.2v3c0,0.3,0.1,0.4,0.3,0.4h0.3c0.1,0,0.2,0,0.2,0.2L555.3,40.6L555.3,40.6z M551.8,39.8
				c0.4,0,0.6-0.1,0.9-0.4s0.3-0.6,0.3-1s-0.1-0.7-0.3-1c-0.2-0.2-0.5-0.4-0.9-0.4s-0.7,0.1-0.9,0.4c-0.2,0.3-0.3,0.6-0.3,1
				s0.1,0.7,0.3,1S551.4,39.8,551.8,39.8z"/>
			<path class="st0" d="M561.7,36c0.7,0,1.3,0.2,1.8,0.7s0.7,1,0.7,1.8c0,0.7-0.2,1.3-0.7,1.8s-1.1,0.7-1.8,0.7
				c-0.5,0-1-0.1-1.3-0.4v2.2c0,0.1-0.1,0.2-0.2,0.2h-1.1c-0.1,0-0.2-0.1-0.2-0.2v-5.2c0-0.3-0.1-0.4-0.4-0.4h-0.2
				c-0.1,0-0.2-0.1-0.2-0.2v-0.8c0-0.1,0.1-0.2,0.1-0.2c0.2-0.1,0.4-0.1,0.7-0.1c0.6,0,0.9,0.2,1.2,0.6
				C560.6,36.2,561.1,36,561.7,36z M560.7,39.5c0.2,0.3,0.5,0.4,0.9,0.4s0.7-0.1,0.9-0.4c0.2-0.3,0.4-0.6,0.4-1s-0.1-0.7-0.4-1
				c-0.2-0.2-0.5-0.4-0.9-0.4s-0.6,0.1-0.9,0.4c-0.2,0.3-0.3,0.6-0.3,1S560.5,39.2,560.7,39.5z"/>
			<path class="st0" d="M571.1,40.6c0,0.1,0,0.2-0.2,0.2c-0.3,0.1-0.5,0.1-0.7,0.1c-0.6,0-1-0.2-1.2-0.6c-0.4,0.4-1,0.6-1.6,0.6
				c-0.7,0-1.3-0.2-1.8-0.7s-0.7-1-0.7-1.8c0-0.7,0.2-1.3,0.7-1.8s1.1-0.7,1.8-0.7c0.5,0,1,0.1,1.4,0.4v-0.1c0-0.1,0.1-0.2,0.2-0.2
				h1c0.1,0,0.2,0.1,0.2,0.2v3c0,0.3,0.1,0.4,0.3,0.4h0.3c0.1,0,0.2,0,0.2,0.2L571.1,40.6L571.1,40.6z M567.6,39.8
				c0.4,0,0.6-0.1,0.9-0.4c0.2-0.3,0.3-0.6,0.3-1s-0.1-0.7-0.3-1c-0.2-0.2-0.5-0.4-0.9-0.4s-0.7,0.1-0.9,0.4c-0.2,0.3-0.3,0.6-0.3,1
				s0.1,0.7,0.3,1C566.9,39.7,567.2,39.8,567.6,39.8z"/>
		</g>
		<path class="st0" d="M575.8,36.1c0.1,0,0.2,0.1,0.1,0.2l-0.1,0.9c0,0.1-0.1,0.2-0.2,0.1c-0.2,0-0.3-0.1-0.5-0.1
			c-0.4,0-0.7,0.1-0.9,0.3s-0.4,0.5-0.4,0.9v2c0,0.1-0.1,0.2-0.2,0.2h-1c-0.1,0-0.2-0.1-0.2-0.2v-3c0-0.3-0.1-0.4-0.4-0.4h-0.2
			c-0.1,0-0.2-0.1-0.2-0.2V36c0-0.1,0.1-0.2,0.1-0.2c0.2-0.1,0.5-0.1,0.7-0.1c0.6,0,1,0.2,1.2,0.7c0.4-0.4,0.9-0.7,1.5-0.7
			C575.4,36,575.6,36,575.8,36.1z"/>
		<g>
			<path class="st0" d="M582.5,40.6c0,0.1,0,0.2-0.2,0.2c-0.3,0.1-0.5,0.1-0.7,0.1c-0.6,0-1-0.2-1.2-0.6c-0.4,0.4-1,0.6-1.6,0.6
				c-0.7,0-1.3-0.2-1.8-0.7s-0.7-1-0.7-1.8c0-0.7,0.2-1.3,0.7-1.8s1.1-0.7,1.8-0.7c0.5,0,1,0.1,1.4,0.4v-0.1c0-0.1,0.1-0.2,0.2-0.2
				h1c0.1,0,0.2,0.1,0.2,0.2v3c0,0.3,0.1,0.4,0.3,0.4h0.3c0.1,0,0.2,0,0.2,0.2L582.5,40.6L582.5,40.6z M579,39.8
				c0.4,0,0.6-0.1,0.9-0.4s0.3-0.6,0.3-1s-0.1-0.7-0.3-1c-0.2-0.2-0.5-0.4-0.9-0.4s-0.7,0.1-0.9,0.4c-0.2,0.3-0.3,0.6-0.3,1
				s0.1,0.7,0.3,1S578.6,39.8,579,39.8z"/>
			<path class="st0" d="M588.2,40.9c-0.8,0-1.4-0.2-1.9-0.7s-0.7-1-0.7-1.8c0-0.7,0.2-1.3,0.7-1.8s1.1-0.7,1.8-0.7s1.4,0.2,1.8,0.7
				c0.5,0.4,0.7,1,0.7,1.8v0.4c0,0.1-0.1,0.2-0.2,0.2H587c0.1,0.3,0.2,0.5,0.5,0.7c0.2,0.2,0.5,0.3,0.8,0.3c0.4,0,0.6-0.1,0.8-0.3
				c0.1-0.1,0.2-0.1,0.2-0.1h1.1c0.1,0,0.1,0,0.2,0.1v0.1c-0.2,0.4-0.5,0.7-0.8,0.9C589.2,40.8,588.7,40.9,588.2,40.9z M586.9,38.1
				h2.3c0-0.3-0.1-0.5-0.3-0.7s-0.5-0.3-0.8-0.3s-0.6,0.1-0.8,0.3C587.1,37.5,587,37.8,586.9,38.1L586.9,38.1z"/>
			<path class="st0" d="M593,40.9c-0.4,0-0.8-0.1-1.1-0.3s-0.3-0.4-0.3-0.8v-5.9c0-0.1,0.1-0.2,0.2-0.2h1.1c0.1,0,0.2,0.1,0.2,0.2
				v5.4c0,0.2,0.1,0.4,0.3,0.4h0.3c0.1,0,0.2,0,0.2,0.2l0.1,0.8c0,0.1,0,0.2-0.2,0.2C593.5,40.9,593.2,40.9,593,40.9L593,40.9z"/>
			<path class="st0" d="M599.8,34.1c1.1,0,2,0.3,2.7,0.9c0.7,0.6,1,1.4,1,2.4s-0.3,1.8-1,2.4c-0.7,0.6-1.6,0.9-2.7,0.9h-2.4
				c-0.1,0-0.2-0.1-0.2-0.2v-6.3c0-0.1,0.1-0.2,0.2-0.2L599.8,34.1L599.8,34.1z M599.7,39.5c0.7,0,1.3-0.2,1.7-0.6
				c0.4-0.4,0.6-0.9,0.6-1.5s-0.2-1.1-0.6-1.5c-0.4-0.4-1-0.6-1.7-0.6h-1v4.1L599.7,39.5L599.7,39.5z"/>
			<path class="st0" d="M607,40.9c-0.8,0-1.4-0.2-1.9-0.7s-0.7-1-0.7-1.8c0-0.7,0.2-1.3,0.7-1.8s1.1-0.7,1.8-0.7s1.4,0.2,1.8,0.7
				c0.5,0.4,0.7,1,0.7,1.8v0.4c0,0.1-0.1,0.2-0.2,0.2h-3.4c0.1,0.3,0.2,0.5,0.5,0.7c0.2,0.2,0.5,0.3,0.8,0.3c0.4,0,0.6-0.1,0.8-0.3
				c0.1-0.1,0.2-0.1,0.2-0.1h1.1c0.1,0,0.1,0,0.2,0.1v0.1c-0.2,0.4-0.5,0.7-0.8,0.9C608,40.8,607.5,40.9,607,40.9z M605.7,38.1h2.3
				c0-0.3-0.1-0.5-0.3-0.7s-0.5-0.3-0.8-0.3s-0.6,0.1-0.8,0.3C605.9,37.5,605.8,37.8,605.7,38.1L605.7,38.1z"/>
			<path class="st0" d="M612.4,40.9c-0.7,0-1.2-0.1-1.6-0.4c-0.4-0.3-0.7-0.6-0.7-1.1c0-0.1,0-0.2,0.2-0.2h0.9
				c0.1,0,0.2,0.1,0.2,0.1c0.1,0.3,0.5,0.5,1,0.5c0.2,0,0.4,0,0.6-0.1c0.1-0.1,0.2-0.2,0.2-0.3c0-0.2-0.1-0.3-0.3-0.4
				c-0.2-0.1-0.5-0.1-0.7-0.2s-0.6-0.1-0.9-0.2c-0.3-0.1-0.5-0.2-0.7-0.4s-0.3-0.5-0.3-0.9c0-0.5,0.2-0.8,0.6-1.1
				c0.4-0.3,0.9-0.4,1.5-0.4s1.1,0.1,1.5,0.4c0.4,0.3,0.6,0.6,0.7,1c0,0.1,0,0.2-0.2,0.2h-0.9c-0.1,0-0.2,0-0.2-0.1
				c-0.1-0.1-0.2-0.3-0.3-0.3c-0.2-0.1-0.3-0.1-0.5-0.1s-0.4,0-0.5,0.1s-0.2,0.2-0.2,0.3c0,0.2,0.1,0.3,0.3,0.4
				c0.2,0.1,0.5,0.1,0.8,0.2c0.3,0,0.6,0.1,0.9,0.2c0.3,0.1,0.5,0.2,0.7,0.4s0.3,0.5,0.3,0.9c0,0.5-0.2,0.8-0.6,1.1
				C613.6,40.8,613,40.9,612.4,40.9z"/>
			<path class="st0" d="M621.4,40.6c0,0.1,0,0.2-0.2,0.2c-0.3,0.1-0.5,0.1-0.7,0.1c-0.6,0-1-0.2-1.2-0.6c-0.4,0.4-1,0.6-1.6,0.6
				c-0.7,0-1.3-0.2-1.8-0.7s-0.7-1-0.7-1.8c0-0.7,0.2-1.3,0.7-1.8s1.1-0.7,1.8-0.7c0.5,0,1,0.1,1.4,0.4v-0.1c0-0.1,0.1-0.2,0.2-0.2
				h1c0.1,0,0.2,0.1,0.2,0.2v3c0,0.3,0.1,0.4,0.3,0.4h0.3c0.1,0,0.2,0,0.2,0.2L621.4,40.6L621.4,40.6z M617.9,39.8
				c0.4,0,0.6-0.1,0.9-0.4s0.3-0.6,0.3-1s-0.1-0.7-0.3-1c-0.2-0.2-0.5-0.4-0.9-0.4s-0.7,0.1-0.9,0.4c-0.2,0.3-0.3,0.6-0.3,1
				s0.1,0.7,0.3,1C617.3,39.7,617.6,39.8,617.9,39.8z"/>
			<path class="st0" d="M626.1,36.1c0.1,0,0.2,0.1,0.1,0.2l-0.1,0.9c0,0.1-0.1,0.2-0.2,0.1c-0.2,0-0.3-0.1-0.5-0.1
				c-0.4,0-0.7,0.1-0.9,0.3s-0.4,0.5-0.4,0.9v2c0,0.1-0.1,0.2-0.2,0.2h-1.1c-0.1,0-0.2-0.1-0.2-0.2v-3c0-0.3-0.1-0.4-0.4-0.4H622
				c-0.1,0-0.2-0.1-0.2-0.2V36c0-0.1,0.1-0.2,0.1-0.2c0.2-0.1,0.5-0.1,0.7-0.1c0.6,0,1,0.2,1.2,0.7c0.4-0.4,0.9-0.7,1.5-0.7
				C625.7,36,625.9,36,626.1,36.1L626.1,36.1z"/>
		</g>
		<path class="st0" d="M630.9,36.1c0.1,0,0.2,0.1,0.1,0.2l-0.1,0.9c0,0.1-0.1,0.2-0.2,0.1c-0.2,0-0.3-0.1-0.5-0.1
			c-0.4,0-0.7,0.1-0.9,0.3s-0.4,0.5-0.4,0.9v2c0,0.1-0.1,0.2-0.2,0.2h-1.1c-0.1,0-0.2-0.1-0.2-0.2v-3c0-0.3-0.1-0.4-0.4-0.4h-0.2
			c-0.1,0-0.2-0.1-0.2-0.2V36c0-0.1,0.1-0.2,0.1-0.2c0.2-0.1,0.5-0.1,0.7-0.1c0.6,0,1,0.2,1.2,0.7c0.4-0.4,0.9-0.7,1.5-0.7
			C630.5,36,630.7,36,630.9,36.1L630.9,36.1z"/>
		<g>
			<path class="st0" d="M636,40.3c-0.5,0.5-1.1,0.7-1.9,0.7s-1.4-0.2-1.9-0.7s-0.7-1-0.7-1.8c0-0.7,0.2-1.3,0.7-1.8s1.1-0.7,1.9-0.7
				s1.4,0.2,1.9,0.7s0.7,1,0.7,1.8C636.7,39.2,636.5,39.8,636,40.3z M633.2,39.4c0.2,0.2,0.5,0.4,0.9,0.4s0.7-0.1,0.9-0.4
				c0.2-0.3,0.3-0.5,0.3-0.9s-0.1-0.7-0.3-0.9s-0.5-0.4-0.9-0.4s-0.7,0.1-0.9,0.4c-0.2,0.2-0.3,0.5-0.3,0.9
				C632.8,38.9,633,39.2,633.2,39.4z"/>
			<path class="st0" d="M639.1,40.9c-0.4,0-0.8-0.1-1.1-0.3s-0.4-0.5-0.4-0.8v-5.9c0-0.1,0.1-0.2,0.2-0.2h1.1c0.1,0,0.2,0.1,0.2,0.2
				v5.4c0,0.2,0.1,0.4,0.3,0.4h0.3c0.1,0,0.2,0,0.2,0.2l0.1,0.8c0,0.1,0,0.2-0.2,0.2S639.4,40.9,639.1,40.9z"/>
			<path class="st0" d="M642.3,40.9c-0.4,0-0.8-0.1-1.1-0.3s-0.4-0.5-0.4-0.8v-5.9c0-0.1,0.1-0.2,0.2-0.2h1.1c0.1,0,0.2,0.1,0.2,0.2
				v5.4c0,0.2,0.1,0.4,0.3,0.4h0.3c0.1,0,0.2,0,0.2,0.2l0.1,0.8c0,0.1,0,0.2-0.2,0.2S642.5,40.9,642.3,40.9z"/>
		</g>
		<path class="st0" d="M648.3,40.3c-0.5,0.5-1.1,0.7-1.9,0.7s-1.4-0.2-1.9-0.7s-0.7-1-0.7-1.8c0-0.7,0.2-1.3,0.7-1.8
			s1.1-0.7,1.9-0.7s1.4,0.2,1.9,0.7s0.7,1,0.7,1.8C649,39.2,648.8,39.8,648.3,40.3z M645.5,39.4c0.2,0.2,0.5,0.4,0.9,0.4
			s0.7-0.1,0.9-0.4c0.2-0.2,0.3-0.5,0.3-0.9s-0.1-0.7-0.3-0.9s-0.5-0.4-0.9-0.4s-0.7,0.1-0.9,0.4c-0.2,0.2-0.3,0.5-0.3,0.9
			C645.1,38.9,645.2,39.2,645.5,39.4z"/>
		<path class="st0" d="M521,52c0,0.1,0,0.2-0.1,0.2c-0.3,0.1-0.5,0.1-0.7,0.1c-0.6,0-1-0.2-1.2-0.6c-0.4,0.4-0.9,0.6-1.6,0.6
			s-1.3-0.2-1.8-0.7s-0.7-1-0.7-1.8c0-0.7,0.2-1.3,0.7-1.8s1.1-0.7,1.8-0.7c0.5,0,1,0.1,1.3,0.4v-2.5c0-0.1,0.1-0.2,0.2-0.2h1.1
			c0.1,0,0.2,0.1,0.2,0.2v5.6c0,0.2,0.1,0.4,0.3,0.4h0.3c0.1,0,0.2,0,0.2,0.2V52L521,52z M517.5,51.2c0.4,0,0.6-0.1,0.9-0.4
			c0.2-0.3,0.3-0.6,0.3-1s-0.1-0.7-0.3-1c-0.2-0.2-0.5-0.4-0.9-0.4s-0.7,0.1-0.9,0.4c-0.2,0.3-0.3,0.6-0.3,1s0.1,0.7,0.3,1
			S517.1,51.2,517.5,51.2z"/>
		<path class="st0" d="M524.3,52.3c-0.8,0-1.4-0.2-1.9-0.7s-0.7-1-0.7-1.8c0-0.7,0.2-1.3,0.7-1.8s1.1-0.7,1.8-0.7s1.4,0.2,1.8,0.7
			c0.5,0.4,0.7,1,0.7,1.8v0.4c0,0.1-0.1,0.2-0.2,0.2h-3.4c0.1,0.3,0.2,0.5,0.5,0.7c0.2,0.2,0.5,0.3,0.8,0.3c0.4,0,0.6-0.1,0.8-0.3
			c0.1-0.1,0.2-0.1,0.2-0.1h1.1c0.1,0,0.1,0,0.2,0.1c0.1,0.1,0,0.1,0,0.1c-0.2,0.4-0.5,0.7-0.8,0.9
			C525.3,52.2,524.8,52.3,524.3,52.3z M523,49.5h2.3c0-0.3-0.1-0.5-0.3-0.7s-0.5-0.3-0.8-0.3s-0.6,0.1-0.8,0.3
			C523.2,48.9,523.1,49.2,523,49.5L523,49.5z"/>
		<g>
			<path class="st0" d="M529.8,52.2c-0.1,0-0.2-0.1-0.2-0.2v-0.9c0-0.1,0.1-0.2,0.2-0.2h0.9v-4.1h-0.9c-0.1,0-0.2-0.1-0.2-0.2v-0.9
				c0-0.1,0.1-0.2,0.2-0.2h3.4c0.1,0,0.2,0.1,0.2,0.2v0.9c0,0.1-0.1,0.2-0.2,0.2h-0.9v4.1h0.9c0.1,0,0.2,0.1,0.2,0.2V52
				c0,0.1-0.1,0.2-0.2,0.2H529.8z"/>
			<path class="st0" d="M537.5,47.4c0.6,0,1.1,0.2,1.5,0.6c0.4,0.4,0.6,0.9,0.6,1.5V52c0,0.1-0.1,0.2-0.2,0.2h-1.1
				c-0.1,0-0.2-0.1-0.2-0.2v-2.3c0-0.3-0.1-0.6-0.3-0.8s-0.4-0.3-0.7-0.3s-0.6,0.1-0.8,0.3s-0.3,0.4-0.3,0.7v2.3
				c0,0.1-0.1,0.2-0.2,0.2h-1.1c-0.1,0-0.2-0.1-0.2-0.2v-3c0-0.3-0.1-0.4-0.4-0.4h-0.2c-0.1,0-0.2-0.1-0.2-0.2v-0.8
				c0-0.1,0.1-0.2,0.1-0.2c0.2-0.1,0.4-0.1,0.7-0.1c0.5,0,0.9,0.2,1.1,0.6C536.3,47.6,536.8,47.4,537.5,47.4L537.5,47.4z"/>
			<path class="st0" d="M546.6,52c0,0.1,0,0.2-0.1,0.2c-0.3,0.1-0.5,0.1-0.7,0.1c-0.6,0-1-0.2-1.2-0.6c-0.4,0.4-0.9,0.6-1.6,0.6
				s-1.3-0.2-1.8-0.7s-0.7-1-0.7-1.8c0-0.7,0.2-1.3,0.7-1.8s1.1-0.7,1.8-0.7c0.5,0,1,0.1,1.3,0.4v-2.5c0-0.1,0.1-0.2,0.2-0.2h1.1
				c0.1,0,0.2,0.1,0.2,0.2v5.6c0,0.2,0.1,0.4,0.3,0.4h0.3c0.1,0,0.2,0,0.2,0.2V52L546.6,52z M543.1,51.2c0.4,0,0.6-0.1,0.9-0.4
				c0.2-0.3,0.3-0.6,0.3-1s-0.1-0.7-0.3-1c-0.2-0.2-0.5-0.4-0.9-0.4s-0.7,0.1-0.9,0.4c-0.2,0.3-0.3,0.6-0.3,1s0.1,0.7,0.3,1
				S542.7,51.2,543.1,51.2z"/>
			<path class="st0" d="M553.2,52c0,0.1,0,0.2-0.1,0.2c-0.3,0.1-0.5,0.1-0.7,0.1c-0.6,0-1-0.2-1.3-0.6c-0.4,0.4-0.9,0.6-1.6,0.6
				c-0.6,0-1.1-0.2-1.5-0.6c-0.4-0.4-0.6-0.9-0.6-1.5v-2.4c0-0.1,0.1-0.2,0.2-0.2h1.1c0.1,0,0.2,0.1,0.2,0.2v2.3
				c0,0.3,0.1,0.6,0.3,0.8s0.4,0.3,0.7,0.3s0.6-0.1,0.8-0.3s0.3-0.4,0.3-0.8v-2.3c0-0.1,0.1-0.2,0.2-0.2h1.1c0.1,0,0.2,0.1,0.2,0.2
				v3c0,0.3,0.1,0.4,0.3,0.4h0.3c0.1,0,0.2,0,0.2,0.2L553.2,52z"/>
			<path class="st0" d="M556,52.3c-0.7,0-1.2-0.1-1.6-0.4c-0.4-0.3-0.7-0.6-0.7-1.1c0-0.1,0-0.2,0.2-0.2h0.9c0.1,0,0.2,0.1,0.2,0.1
				c0.1,0.3,0.5,0.5,1,0.5c0.2,0,0.4,0,0.6-0.1c0.1-0.1,0.2-0.2,0.2-0.3c0-0.2-0.1-0.3-0.3-0.4c-0.2-0.1-0.5-0.1-0.7-0.2
				c-0.3,0-0.6-0.1-0.9-0.2c-0.3-0.1-0.5-0.2-0.7-0.4s-0.3-0.5-0.3-0.9c0-0.5,0.2-0.8,0.6-1.1c0.4-0.3,0.9-0.4,1.5-0.4
				s1.1,0.1,1.5,0.4c0.4,0.3,0.6,0.6,0.7,1c0,0.1,0,0.2-0.2,0.2h-0.9c-0.1,0-0.2,0-0.2-0.1c-0.1-0.1-0.2-0.3-0.3-0.3
				c-0.2-0.1-0.3-0.1-0.5-0.1s-0.4,0-0.5,0.1s-0.2,0.2-0.2,0.3c0,0.2,0.1,0.3,0.3,0.4c0.2,0.1,0.5,0.1,0.8,0.2
				c0.3,0,0.6,0.1,0.9,0.2c0.3,0.1,0.5,0.2,0.7,0.4s0.3,0.5,0.3,0.9c0,0.5-0.2,0.8-0.6,1.1C557.2,52.2,556.7,52.3,556,52.3z"/>
			<path class="st0" d="M561.7,52.3c-0.6,0-1.1-0.2-1.5-0.5c-0.4-0.4-0.5-0.8-0.5-1.4v-1.6h-0.9c-0.1,0-0.2-0.1-0.2-0.2v-0.8
				c0-0.1,0.1-0.2,0.2-0.2h0.9v-1.2c0-0.1,0.1-0.2,0.2-0.2h1.1c0.1,0,0.2,0.1,0.2,0.2v1.2h1.5c0.1,0,0.2,0.1,0.2,0.2v0.8
				c0,0.1-0.1,0.2-0.2,0.2h-1.5v1.6c0,0.2,0.1,0.4,0.2,0.6c0.1,0.1,0.3,0.2,0.6,0.2s0.5,0,0.7-0.1c0.1,0,0.2,0,0.2,0.1L563,52
				c0,0.1,0,0.2-0.1,0.2C562.4,52.3,562,52.3,561.7,52.3L561.7,52.3z"/>
			<path class="st0" d="M567.6,47.5c0.1,0,0.2,0.1,0.1,0.2l-0.1,0.9c0,0.1-0.1,0.2-0.2,0.1c-0.2,0-0.3-0.1-0.5-0.1
				c-0.4,0-0.7,0.1-0.9,0.3s-0.4,0.5-0.4,0.9v2c0,0.1-0.1,0.2-0.2,0.2h-1.1c-0.1,0-0.2-0.1-0.2-0.2v-3c0-0.3-0.1-0.4-0.4-0.4h-0.2
				c-0.1,0-0.2-0.1-0.2-0.2v-0.4c0-0.1,0.1-0.2,0.1-0.2c0.2-0.1,0.5-0.1,0.7-0.1c0.6,0,1,0.2,1.2,0.7c0.4-0.4,0.9-0.7,1.5-0.7
				C567.2,47.4,567.4,47.5,567.6,47.5L567.6,47.5z"/>
		</g>
		<path class="st0" d="M569.9,46.5c-0.2,0.2-0.4,0.2-0.6,0.2s-0.4-0.1-0.6-0.2c-0.2-0.2-0.2-0.3-0.2-0.6c0-0.2,0.1-0.4,0.2-0.6
			c0.2-0.2,0.4-0.2,0.6-0.2s0.4,0.1,0.6,0.2c0.2,0.2,0.2,0.3,0.2,0.6C570.2,46.1,570.1,46.3,569.9,46.5z M568.8,52.2
			c-0.1,0-0.2-0.1-0.2-0.2v-4.2c0-0.1,0.1-0.2,0.2-0.2h1.1c0.1,0,0.2,0.1,0.2,0.2V52c0,0.1-0.1,0.2-0.2,0.2H568.8z"/>
		<g>
			<path class="st0" d="M577.1,52c0,0.1,0,0.2-0.2,0.2c-0.3,0.1-0.5,0.1-0.7,0.1c-0.6,0-1-0.2-1.2-0.6c-0.4,0.4-1,0.6-1.6,0.6
				c-0.7,0-1.3-0.2-1.8-0.7s-0.7-1-0.7-1.8c0-0.7,0.2-1.3,0.7-1.8s1.1-0.7,1.8-0.7c0.5,0,1,0.1,1.4,0.4v0.1c0-0.1,0.1-0.2,0.2-0.2h1
				c0.1,0,0.2,0.1,0.2,0.2v3c0,0.3,0.1,0.4,0.3,0.4h0.3c0.1,0,0.2,0,0.2,0.2L577.1,52L577.1,52z M573.6,51.2c0.4,0,0.6-0.1,0.9-0.4
				c0.2-0.3,0.3-0.6,0.3-1s-0.1-0.7-0.3-1c-0.2-0.2-0.5-0.4-0.9-0.4s-0.7,0.1-0.9,0.4c-0.2,0.3-0.3,0.6-0.3,1s0.1,0.7,0.3,1
				S573.2,51.2,573.6,51.2z"/>
			<path class="st0" d="M580,52.3c-0.7,0-1.2-0.1-1.6-0.4c-0.4-0.3-0.7-0.6-0.7-1.1c0-0.1,0-0.2,0.2-0.2h0.9c0.1,0,0.2,0.1,0.2,0.1
				c0.1,0.3,0.5,0.5,1,0.5c0.2,0,0.4,0,0.6-0.1c0.1-0.1,0.2-0.2,0.2-0.3c0-0.2-0.1-0.3-0.3-0.4c-0.2-0.1-0.5-0.1-0.7-0.2
				c-0.3,0-0.6-0.1-0.9-0.2c-0.3-0.1-0.5-0.2-0.7-0.4s-0.3-0.5-0.3-0.9c0-0.5,0.2-0.8,0.6-1.1c0.4-0.3,0.9-0.4,1.5-0.4
				s1.1,0.1,1.5,0.4c0.4,0.3,0.6,0.6,0.7,1c0,0.1,0,0.2-0.2,0.2h-0.9c-0.1,0-0.2,0-0.2-0.1c-0.1-0.1-0.2-0.3-0.3-0.3
				c-0.2-0.1-0.3-0.1-0.5-0.1s-0.4,0-0.5,0.1s-0.2,0.2-0.2,0.3c0,0.2,0.1,0.3,0.3,0.4c0.2,0.1,0.5,0.1,0.8,0.2
				c0.3,0,0.6,0.1,0.9,0.2c0.3,0.1,0.5,0.2,0.7,0.4s0.3,0.5,0.3,0.9c0,0.5-0.2,0.8-0.6,1.1C581.2,52.2,580.7,52.3,580,52.3z"/>
			<path class="st0" d="M589,52.3c-1.1,0-1.9-0.3-2.6-1c-0.7-0.6-1-1.5-1-2.5s0.3-1.9,1-2.5s1.5-1,2.6-1c0.9,0,1.6,0.2,2.2,0.7
				c0.6,0.5,1,1.1,1.2,1.9c0,0.1,0,0.2-0.2,0.2H591c-0.1,0-0.2-0.1-0.2-0.2c-0.1-0.4-0.4-0.7-0.7-0.9s-0.7-0.3-1.2-0.3
				c-0.6,0-1.1,0.2-1.5,0.6c-0.4,0.4-0.6,0.9-0.6,1.6s0.2,1.2,0.6,1.6c0.4,0.4,0.9,0.6,1.5,0.6c0.4,0,0.8-0.1,1.1-0.3
				s0.6-0.5,0.7-0.9c0-0.1,0.1-0.2,0.2-0.2h1.2c0.1,0,0.2,0.1,0.2,0.2c-0.2,0.8-0.5,1.4-1.2,1.9C590.6,52.1,589.9,52.3,589,52.3z"/>
		</g>
		<path class="st0" d="M597.3,47.5c0.1,0,0.2,0.1,0.1,0.2l-0.1,0.9c0,0.1-0.1,0.2-0.2,0.1c-0.2,0-0.3-0.1-0.5-0.1
			c-0.4,0-0.7,0.1-0.9,0.3s-0.4,0.5-0.4,0.9v2c0,0.1-0.1,0.2-0.2,0.2H594c-0.1,0-0.2-0.1-0.2-0.2v-3c0-0.3-0.1-0.4-0.4-0.4h-0.2
			c-0.1,0-0.2-0.1-0.2-0.2v-0.4c0-0.1,0.1-0.2,0.1-0.2c0.2-0.1,0.5-0.1,0.7-0.1c0.6,0,1,0.2,1.2,0.7c0.4-0.4,0.9-0.7,1.5-0.7
			C596.9,47.4,597.1,47.5,597.3,47.5L597.3,47.5z"/>
		<path class="st0" d="M600.5,52.3c-0.8,0-1.4-0.2-1.9-0.7s-0.7-1-0.7-1.8c0-0.7,0.2-1.3,0.7-1.8s1.1-0.7,1.8-0.7
			c0.8,0,1.4,0.2,1.8,0.7c0.5,0.4,0.7,1,0.7,1.8v0.4c0,0.1-0.1,0.2-0.2,0.2h-3.4c0.1,0.3,0.2,0.5,0.5,0.7c0.2,0.2,0.5,0.3,0.8,0.3
			c0.4,0,0.6-0.1,0.8-0.3c0.1-0.1,0.2-0.1,0.2-0.1h1.1c0.1,0,0.1,0,0.2,0.1c0.1,0.1,0,0.1,0,0.1c-0.2,0.4-0.5,0.7-0.8,0.9
			C601.5,52.2,601,52.3,600.5,52.3z M599.3,49.5h2.3c0-0.3-0.1-0.5-0.3-0.7s-0.5-0.3-0.8-0.3s-0.6,0.1-0.8,0.3
			C599.4,48.9,599.3,49.2,599.3,49.5L599.3,49.5z"/>
		<path class="st0" d="M609.8,52c0,0.1,0,0.2-0.2,0.2c-0.3,0.1-0.5,0.1-0.7,0.1c-0.6,0-1-0.2-1.2-0.6c-0.4,0.4-1,0.6-1.6,0.6
			c-0.7,0-1.3-0.2-1.8-0.7s-0.7-1-0.7-1.8c0-0.7,0.2-1.3,0.7-1.8s1.1-0.7,1.8-0.7c0.5,0,1,0.1,1.4,0.4v0.1c0-0.1,0.1-0.2,0.2-0.2h1
			c0.1,0,0.2,0.1,0.2,0.2v3c0,0.3,0.1,0.4,0.3,0.4h0.3c0.1,0,0.2,0,0.2,0.2L609.8,52L609.8,52z M606.2,51.2c0.4,0,0.6-0.1,0.9-0.4
			c0.2-0.3,0.3-0.6,0.3-1s-0.1-0.7-0.3-1c-0.2-0.2-0.5-0.4-0.9-0.4s-0.7,0.1-0.9,0.4c-0.2,0.3-0.3,0.6-0.3,1s0.1,0.7,0.3,1
			C605.6,51.1,605.9,51.2,606.2,51.2z"/>
		<path class="st0" d="M613.1,52.3c-0.6,0-1.1-0.2-1.5-0.5c-0.4-0.4-0.5-0.8-0.5-1.4v-1.6h-0.9c-0.1,0-0.2-0.1-0.2-0.2v-0.8
			c0-0.1,0.1-0.2,0.2-0.2h0.9v-1.2c0-0.1,0.1-0.2,0.2-0.2h1.1c0.1,0,0.2,0.1,0.2,0.2v1.2h1.5c0.1,0,0.2,0.1,0.2,0.2v0.8
			c0,0.1-0.1,0.2-0.2,0.2h-1.5v1.6c0,0.2,0.1,0.4,0.2,0.6c0.1,0.1,0.3,0.2,0.6,0.2s0.5,0,0.7-0.1c0.1,0,0.2,0,0.2,0.1l0.1,0.8
			c0,0.1,0,0.2-0.1,0.2C613.8,52.3,613.4,52.3,613.1,52.3L613.1,52.3z"/>
		<path class="st0" d="M616.5,46.5c-0.2,0.2-0.4,0.2-0.6,0.2s-0.4-0.1-0.6-0.2c-0.2-0.2-0.2-0.3-0.2-0.6c0-0.2,0.1-0.4,0.2-0.6
			c0.2-0.2,0.4-0.2,0.6-0.2s0.4,0.1,0.6,0.2c0.2,0.2,0.2,0.3,0.2,0.6C616.8,46.1,616.7,46.3,616.5,46.5z M615.4,52.2
			c-0.1,0-0.2-0.1-0.2-0.2v-4.2c0-0.1,0.1-0.2,0.2-0.2h1.1c0.1,0,0.2,0.1,0.2,0.2V52c0,0.1-0.1,0.2-0.2,0.2H615.4z"/>
		<path class="st0" d="M619.5,52.2c-0.1,0-0.2-0.1-0.2-0.1l-2-4.3c-0.1-0.1,0-0.2,0.1-0.2h1.1c0.1,0,0.2,0,0.2,0.1l1.2,2.8l1.3-2.8
			c0-0.1,0.1-0.1,0.2-0.1h1.1c0.1,0,0.1,0,0.1,0.1v0.2l-2,4.3c0,0.1-0.1,0.1-0.2,0.1L619.5,52.2L619.5,52.2L619.5,52.2z"/>
		<g>
			<path class="st0" d="M629.3,52c0,0.1,0,0.2-0.2,0.2c-0.3,0.1-0.5,0.1-0.7,0.1c-0.6,0-1-0.2-1.2-0.6c-0.4,0.4-1,0.6-1.6,0.6
				c-0.7,0-1.3-0.2-1.8-0.7s-0.7-1-0.7-1.8c0-0.7,0.2-1.3,0.7-1.8s1.1-0.7,1.8-0.7c0.5,0,1,0.1,1.4,0.4v0.1c0-0.1,0.1-0.2,0.2-0.2h1
				c0.1,0,0.2,0.1,0.2,0.2v3c0,0.3,0.1,0.4,0.3,0.4h0.3c0.1,0,0.2,0,0.2,0.2L629.3,52L629.3,52z M625.8,51.2c0.4,0,0.6-0.1,0.9-0.4
				c0.2-0.3,0.3-0.6,0.3-1s-0.1-0.7-0.3-1c-0.2-0.2-0.5-0.4-0.9-0.4s-0.7,0.1-0.9,0.4c-0.2,0.3-0.3,0.6-0.3,1s0.1,0.7,0.3,1
				C625.1,51.1,625.4,51.2,625.8,51.2z"/>
			<path class="st0" d="M632.2,52.3c-0.7,0-1.2-0.1-1.6-0.4c-0.4-0.3-0.7-0.6-0.7-1.1c0-0.1,0-0.2,0.2-0.2h0.9
				c0.1,0,0.2,0.1,0.2,0.1c0.1,0.3,0.5,0.5,1,0.5c0.2,0,0.4,0,0.6-0.1c0.1-0.1,0.2-0.2,0.2-0.3c0-0.2-0.1-0.3-0.3-0.4
				c-0.2-0.1-0.5-0.1-0.7-0.2c-0.3,0-0.6-0.1-0.9-0.2s-0.5-0.2-0.7-0.4s-0.3-0.5-0.3-0.9c0-0.5,0.2-0.8,0.6-1.1
				c0.4-0.3,0.9-0.4,1.5-0.4s1.1,0.1,1.5,0.4c0.4,0.3,0.6,0.6,0.7,1c0,0.1,0,0.2-0.2,0.2h-0.9c-0.1,0-0.2,0-0.2-0.1
				c-0.1-0.1-0.2-0.3-0.3-0.3c-0.2-0.1-0.3-0.1-0.5-0.1s-0.4,0-0.5,0.1s-0.2,0.2-0.2,0.3c0,0.2,0.1,0.3,0.3,0.4
				c0.2,0.1,0.5,0.1,0.8,0.2c0.3,0,0.6,0.1,0.9,0.2c0.3,0.1,0.5,0.2,0.7,0.4s0.3,0.5,0.3,0.9c0,0.5-0.2,0.8-0.6,1.1
				C633.4,52.2,632.8,52.3,632.2,52.3z"/>
			<path class="st0" d="M643,47.6C643.1,47.6,643.1,47.6,643,47.6l0.1,0.3l-2.4,5.3c-0.5,1-1.2,1.5-2.1,1.5c-0.4,0-0.8-0.1-1.1-0.2
				c-0.1,0-0.2-0.1-0.1-0.2l0.1-0.8c0-0.1,0.1-0.2,0.2-0.2c0.3,0.1,0.5,0.1,0.7,0.1c0.5,0,0.8-0.2,1-0.6l0.2-0.4l-2.2-4.5v-0.2
				c0,0,0.1-0.1,0.2-0.1h1.1c0.1,0,0.2,0,0.2,0.1l1.5,3l1.3-3c0-0.1,0.1-0.1,0.2-0.1L643,47.6L643,47.6z"/>
		</g>
		<path class="st0" d="M517.8,56.9c1.1,0,2,0.3,2.7,0.9s1,1.4,1,2.4s-0.3,1.8-1,2.4s-1.6,0.9-2.7,0.9h-2.4c-0.1,0-0.2-0.1-0.2-0.2
			V57c0-0.1,0.1-0.2,0.2-0.2L517.8,56.9L517.8,56.9z M517.7,62.3c0.7,0,1.3-0.2,1.7-0.6s0.6-0.9,0.6-1.5s-0.2-1.1-0.6-1.5
			c-0.4-0.4-1-0.6-1.7-0.6h-1v4.1L517.7,62.3L517.7,62.3z"/>
		<path class="st0" d="M523.9,57.9c-0.2,0.2-0.4,0.2-0.6,0.2s-0.4-0.1-0.6-0.2c-0.2-0.2-0.2-0.3-0.2-0.6s0.1-0.4,0.2-0.6
			c0.2-0.2,0.4-0.2,0.6-0.2s0.4,0.1,0.6,0.2c0.2,0.2,0.2,0.3,0.2,0.6S524,57.8,523.9,57.9z M522.7,63.6c-0.1,0-0.2-0.1-0.2-0.2v-4.2
			c0-0.1,0.1-0.2,0.2-0.2h1.1c0.1,0,0.2,0.1,0.2,0.2v4.2c0,0.1-0.1,0.2-0.2,0.2H522.7z"/>
		<path class="st0" d="M530,59c0.1,0,0.2,0.1,0.2,0.2v4.5c0,0.7-0.2,1.2-0.7,1.6s-1.1,0.6-1.8,0.6s-1.3-0.2-1.7-0.5
			c-0.5-0.3-0.7-0.7-0.8-1.3c0-0.1,0-0.2,0.2-0.2h1.1c0.1,0,0.2,0.1,0.2,0.1c0.1,0.2,0.2,0.3,0.4,0.5c0.2,0.2,0.4,0.2,0.7,0.2
			s0.6-0.1,0.8-0.3c0.2-0.2,0.3-0.5,0.3-0.8v-0.4c-0.4,0.3-0.8,0.4-1.3,0.4c-0.7,0-1.3-0.2-1.8-0.7s-0.7-1-0.7-1.8s0.2-1.3,0.7-1.8
			s1.1-0.7,1.8-0.7c0.5,0,1,0.1,1.4,0.4v-0.1c0-0.1,0.1-0.2,0.2-0.2L530,59L530,59L530,59z M527.6,62.6c0.4,0,0.6-0.1,0.9-0.4
			c0.2-0.3,0.3-0.6,0.3-1s-0.1-0.7-0.3-1c-0.2-0.2-0.5-0.4-0.9-0.4s-0.7,0.1-0.9,0.4c-0.2,0.3-0.3,0.6-0.3,1s0.1,0.7,0.3,1
			C526.9,62.5,527.2,62.6,527.6,62.6z"/>
		<g>
			<path class="st0" d="M532.7,57.9c-0.2,0.2-0.4,0.2-0.6,0.2s-0.4-0.1-0.6-0.2c-0.2-0.2-0.2-0.3-0.2-0.6s0.1-0.4,0.2-0.6
				c0.2-0.2,0.4-0.2,0.6-0.2s0.4,0.1,0.6,0.2c0.2,0.2,0.2,0.3,0.2,0.6S532.9,57.8,532.7,57.9z M531.6,63.6c-0.1,0-0.2-0.1-0.2-0.2
				v-4.2c0-0.1,0.1-0.2,0.2-0.2h1.1c0.1,0,0.2,0.1,0.2,0.2v4.2c0,0.1-0.1,0.2-0.2,0.2H531.6z"/>
			<path class="st0" d="M536.5,63.7c-0.6,0-1.1-0.2-1.5-0.5c-0.4-0.4-0.5-0.8-0.5-1.4v-1.6h-0.9c-0.1,0-0.2-0.1-0.2-0.2v-0.8
				c0-0.1,0.1-0.2,0.2-0.2h0.9v-1.2c0-0.1,0.1-0.2,0.2-0.2h1.1c0.1,0,0.2,0.1,0.2,0.2V59h1.5c0.1,0,0.2,0.1,0.2,0.2V60
				c0,0.1-0.1,0.2-0.2,0.2H536v1.6c0,0.2,0.1,0.4,0.2,0.6c0.1,0.1,0.3,0.2,0.6,0.2s0.5,0,0.7-0.1c0.1,0,0.2,0,0.2,0.1l0.1,0.8
				c0,0.1,0,0.2-0.1,0.2C537.2,63.7,536.8,63.7,536.5,63.7L536.5,63.7z"/>
		</g>
		<g>
			<path class="st0" d="M544.5,63.4c0,0.1,0,0.2-0.2,0.2c-0.3,0.1-0.5,0.1-0.7,0.1c-0.6,0-1-0.2-1.2-0.6c-0.4,0.4-1,0.6-1.6,0.6
				c-0.7,0-1.3-0.2-1.8-0.7s-0.7-1-0.7-1.8c0-0.7,0.2-1.3,0.7-1.8s1.1-0.7,1.8-0.7c0.5,0,1,0.1,1.4,0.4V59c0-0.1,0.1-0.2,0.2-0.2h1
				c0.1,0,0.2,0.1,0.2,0.2v3c0,0.3,0.1,0.4,0.3,0.4h0.3c0.1,0,0.2,0,0.2,0.2L544.5,63.4L544.5,63.4z M541,62.6
				c0.4,0,0.6-0.1,0.9-0.4c0.2-0.3,0.3-0.6,0.3-1s-0.1-0.7-0.3-1c-0.2-0.2-0.5-0.4-0.9-0.4s-0.7,0.1-0.9,0.4c-0.2,0.3-0.3,0.6-0.3,1
				s0.1,0.7,0.3,1S540.6,62.6,541,62.6z"/>
			<path class="st0" d="M546.8,63.7c-0.4,0-0.8-0.1-1.1-0.3s-0.4-0.5-0.4-0.8v-5.9c0-0.1,0.1-0.2,0.2-0.2h1.1c0.1,0,0.2,0.1,0.2,0.2
				v5.4c0,0.2,0.1,0.4,0.3,0.4h0.3c0.1,0,0.2,0,0.2,0.2l0.1,0.8c0,0.1,0,0.2-0.2,0.2S547,63.7,546.8,63.7z"/>
			<path class="st0" d="M550.9,63.7c-0.8,0-1.4-0.2-1.9-0.7s-0.7-1-0.7-1.8c0-0.7,0.2-1.3,0.7-1.8s1.1-0.7,1.8-0.7s1.4,0.2,1.8,0.7
				c0.5,0.4,0.7,1,0.7,1.8v0.4c0,0.1-0.1,0.2-0.2,0.2h-3.4c0.1,0.3,0.2,0.5,0.5,0.7c0.2,0.2,0.5,0.3,0.8,0.3c0.4,0,0.6-0.1,0.8-0.3
				c0.1-0.1,0.2-0.1,0.2-0.1h1.1c0.1,0,0.1,0,0.2,0.1v0.1c-0.2,0.4-0.5,0.7-0.8,0.9C551.9,63.6,551.4,63.7,550.9,63.7z M549.7,60.9
				h2.3c0-0.3-0.1-0.5-0.3-0.7s-0.5-0.3-0.8-0.3s-0.6,0.1-0.8,0.3C549.8,60.4,549.7,60.6,549.7,60.9L549.7,60.9z"/>
			<path class="st0" d="M556.3,63.7c-0.7,0-1.2-0.1-1.6-0.4c-0.4-0.3-0.7-0.6-0.7-1.1c0-0.1,0-0.2,0.2-0.2h0.9
				c0.1,0,0.2,0.1,0.2,0.1c0.1,0.3,0.5,0.5,1,0.5c0.2,0,0.4,0,0.6-0.1c0.1-0.1,0.2-0.2,0.2-0.3c0-0.2-0.1-0.3-0.3-0.4
				c-0.2-0.1-0.5-0.1-0.7-0.2c-0.3,0-0.6-0.1-0.9-0.2c-0.3-0.1-0.5-0.2-0.7-0.4s-0.3-0.5-0.3-0.9c0-0.5,0.2-0.8,0.6-1.1
				c0.4-0.3,0.9-0.4,1.5-0.4s1.1,0.1,1.5,0.4c0.4,0.3,0.6,0.6,0.7,1c0,0.1,0,0.2-0.2,0.2h-0.9c-0.1,0-0.2,0-0.2-0.1
				c-0.1-0.1-0.2-0.3-0.3-0.3c-0.2-0.1-0.3-0.1-0.5-0.1s-0.4,0-0.5,0.1s-0.2,0.2-0.2,0.3c0,0.2,0.1,0.3,0.3,0.4
				c0.2,0.1,0.5,0.1,0.8,0.2c0.3,0,0.6,0.1,0.9,0.2c0.3,0.1,0.5,0.2,0.7,0.4s0.3,0.5,0.3,0.9c0,0.5-0.2,0.8-0.6,1.1
				C557.5,63.6,557,63.7,556.3,63.7z"/>
			<path class="st0" d="M567.8,63.4c0,0.1,0,0.2-0.1,0.2c-0.3,0.1-0.5,0.1-0.7,0.1c-0.6,0-1-0.2-1.2-0.6c-0.4,0.4-0.9,0.6-1.6,0.6
				s-1.3-0.2-1.8-0.7s-0.7-1-0.7-1.8c0-0.7,0.2-1.3,0.7-1.8s1.1-0.7,1.8-0.7c0.5,0,1,0.1,1.3,0.4v-2.5c0-0.1,0.1-0.2,0.2-0.2h1.1
				c0.1,0,0.2,0.1,0.2,0.2V62c0,0.2,0.1,0.4,0.3,0.4h0.3c0.1,0,0.2,0,0.2,0.2V63.4L567.8,63.4z M564.3,62.6c0.4,0,0.6-0.1,0.9-0.4
				c0.2-0.3,0.3-0.6,0.3-1s-0.1-0.7-0.3-1s-0.5-0.4-0.9-0.4s-0.7,0.1-0.9,0.4c-0.2,0.3-0.3,0.6-0.3,1s0.1,0.7,0.3,1
				C563.6,62.5,563.9,62.6,564.3,62.6z"/>
		</g>
		<path class="st0" d="M571,63.7c-0.8,0-1.4-0.2-1.9-0.7s-0.7-1-0.7-1.8c0-0.7,0.2-1.3,0.7-1.8s1.1-0.7,1.8-0.7s1.4,0.2,1.8,0.7
			c0.4,0.4,0.7,1,0.7,1.8v0.4c0,0.1-0.1,0.2-0.2,0.2h-3.4c0.1,0.3,0.2,0.5,0.5,0.7c0.2,0.2,0.5,0.3,0.8,0.3c0.4,0,0.6-0.1,0.8-0.3
			c0.1-0.1,0.2-0.1,0.2-0.1h1.1c0.1,0,0.1,0,0.2,0.1v0.1c-0.2,0.4-0.5,0.7-0.8,0.9C572,63.6,571.6,63.7,571,63.7z M569.8,60.9h2.3
			c0-0.3-0.1-0.5-0.3-0.7s-0.5-0.3-0.8-0.3s-0.6,0.1-0.8,0.3S569.8,60.6,569.8,60.9L569.8,60.9z"/>
		<g>
			<path class="st0" d="M579,63.7c-0.7,0-1.3-0.2-1.8-0.6s-0.7-0.9-0.8-1.6c0-0.1,0-0.2,0.2-0.2h1.1c0.1,0,0.2,0.1,0.2,0.2
				c0.1,0.3,0.2,0.5,0.4,0.7s0.5,0.2,0.8,0.2c0.4,0,0.7-0.1,0.9-0.4c0.2-0.3,0.3-0.6,0.3-1v-2.9h-2.8c-0.1,0-0.2-0.1-0.2-0.2V57
				c0-0.1,0.1-0.2,0.2-0.2h4.1c0.1,0,0.2,0.1,0.2,0.2v4c0,0.8-0.2,1.5-0.7,2C580.5,63.5,579.8,63.7,579,63.7L579,63.7z"/>
			<path class="st0" d="M588.8,63.4c0,0.1,0,0.2-0.2,0.2c-0.3,0.1-0.5,0.1-0.7,0.1c-0.6,0-1-0.2-1.2-0.6c-0.4,0.4-1,0.6-1.6,0.6
				c-0.7,0-1.3-0.2-1.8-0.7s-0.7-1-0.7-1.8c0-0.7,0.2-1.3,0.7-1.8s1.1-0.7,1.8-0.7c0.5,0,1,0.1,1.4,0.4V59c0-0.1,0.1-0.2,0.2-0.2h1
				c0.1,0,0.2,0.1,0.2,0.2v3c0,0.3,0.1,0.4,0.3,0.4h0.3c0.1,0,0.2,0,0.2,0.2L588.8,63.4L588.8,63.4z M585.3,62.6
				c0.4,0,0.6-0.1,0.9-0.4s0.3-0.6,0.3-1s-0.1-0.7-0.3-1c-0.2-0.2-0.5-0.4-0.9-0.4s-0.7,0.1-0.9,0.4c-0.2,0.3-0.3,0.6-0.3,1
				s0.1,0.7,0.3,1S584.9,62.6,585.3,62.6z"/>
			<path class="st0" d="M591.1,63.7c-0.4,0-0.8-0.1-1.1-0.3s-0.4-0.5-0.4-0.8v-5.9c0-0.1,0.1-0.2,0.2-0.2h1.1c0.1,0,0.2,0.1,0.2,0.2
				v5.4c0,0.2,0.1,0.4,0.3,0.4h0.3c0.1,0,0.2,0,0.2,0.2l0.1,0.8c0,0.1,0,0.2-0.2,0.2S591.3,63.7,591.1,63.7z"/>
			<path class="st0" d="M594.1,57.9c-0.2,0.2-0.4,0.2-0.6,0.2s-0.4-0.1-0.6-0.2c-0.2-0.2-0.2-0.3-0.2-0.6s0.1-0.4,0.2-0.6
				c0.2-0.2,0.4-0.2,0.6-0.2s0.4,0.1,0.6,0.2c0.2,0.2,0.2,0.3,0.2,0.6S594.3,57.8,594.1,57.9z M593,63.6c-0.1,0-0.2-0.1-0.2-0.2
				v-4.2c0-0.1,0.1-0.2,0.2-0.2h1.1c0.1,0,0.2,0.1,0.2,0.2v4.2c0,0.1-0.1,0.2-0.2,0.2H593z"/>
			<path class="st0" d="M597.5,63.7c-0.7,0-1.2-0.1-1.6-0.4c-0.4-0.3-0.7-0.6-0.7-1.1c0-0.1,0-0.2,0.2-0.2h0.9
				c0.1,0,0.2,0.1,0.2,0.1c0.1,0.3,0.5,0.5,1,0.5c0.2,0,0.4,0,0.6-0.1c0.1-0.1,0.2-0.2,0.2-0.3c0-0.2-0.1-0.3-0.3-0.4
				c-0.2-0.1-0.5-0.1-0.7-0.2c-0.3,0-0.6-0.1-0.9-0.2c-0.3-0.1-0.5-0.2-0.7-0.4s-0.3-0.5-0.3-0.9c0-0.5,0.2-0.8,0.6-1.1
				c0.4-0.3,0.9-0.4,1.5-0.4s1.1,0.1,1.5,0.4c0.4,0.3,0.6,0.6,0.7,1c0,0.1,0,0.2-0.2,0.2h-0.9c-0.1,0-0.2,0-0.2-0.1
				c-0.1-0.1-0.2-0.3-0.3-0.3c-0.2-0.1-0.3-0.1-0.5-0.1s-0.4,0-0.5,0.1s-0.2,0.2-0.2,0.3c0,0.2,0.1,0.3,0.3,0.4
				c0.2,0.1,0.5,0.1,0.8,0.2c0.3,0,0.6,0.1,0.9,0.2c0.3,0.1,0.5,0.2,0.7,0.4s0.3,0.5,0.3,0.9c0,0.5-0.2,0.8-0.6,1.1
				C598.7,63.6,598.1,63.7,597.5,63.7z"/>
			<path class="st0" d="M603,63.7c-0.8,0-1.4-0.2-1.9-0.7s-0.7-1-0.7-1.8c0-0.7,0.2-1.3,0.7-1.8s1.1-0.7,1.9-0.7
				c0.6,0,1.2,0.2,1.6,0.5c0.4,0.3,0.7,0.7,0.8,1.3c0,0.1,0,0.2-0.2,0.2h-1c-0.1,0-0.2-0.1-0.2-0.2c-0.1-0.2-0.2-0.3-0.4-0.4
				c-0.2-0.1-0.4-0.2-0.6-0.2c-0.4,0-0.7,0.1-0.9,0.4c-0.2,0.2-0.3,0.6-0.3,1s0.1,0.7,0.3,0.9s0.5,0.4,0.9,0.4
				c0.3,0,0.5-0.1,0.7-0.2s0.3-0.3,0.4-0.5c0.1-0.1,0.1-0.2,0.2-0.2h1c0.1,0,0.2,0.1,0.2,0.2c-0.1,0.5-0.4,0.9-0.8,1.3
				C604.1,63.6,603.6,63.7,603,63.7z"/>
		</g>
		<path class="st0" d="M610.6,63.1c-0.5,0.5-1.1,0.7-1.9,0.7s-1.4-0.2-1.9-0.7s-0.7-1-0.7-1.8c0-0.7,0.2-1.3,0.7-1.8
			s1.1-0.7,1.9-0.7s1.4,0.2,1.9,0.7s0.7,1,0.7,1.8C611.3,62,611.1,62.6,610.6,63.1z M607.8,62.2c0.2,0.2,0.5,0.4,0.9,0.4
			s0.7-0.1,0.9-0.4c0.2-0.2,0.3-0.5,0.3-0.9s-0.1-0.7-0.3-0.9s-0.5-0.4-0.9-0.4s-0.7,0.1-0.9,0.4c-0.2,0.2-0.3,0.5-0.3,0.9
			S607.6,62,607.8,62.2z"/>
	</g>
	<g>
		<path class="st0" d="M483.9,38.6c4.2,0,7.5-3.4,7.5-7.5s-3.4-7.5-7.5-7.5c-4.1,0-7.5,3.4-7.5,7.5S479.8,38.6,483.9,38.6z
			 M483.9,27.2c2.1,0,3.8,1.7,3.8,3.8s-1.7,3.8-3.8,3.8s-3.8-1.7-3.8-3.8C480.2,28.9,481.9,27.2,483.9,27.2z"/>
		<path class="st0" d="M483.9,44.5c-1.4,0-2.7,0.4-3.8,1l-10.5-10.6c0.7-1.1,1.1-2.5,1.1-3.9c0-4.2-3.4-7.5-7.5-7.5
			s-7.5,3.4-7.5,7.5s3.4,7.5,7.5,7.5c1.4,0,2.7-0.4,3.8-1l10.5,10.6c-0.7,1.1-1.1,2.5-1.1,3.9s0.4,2.7,1,3.8L467,66
			c-1.1-0.7-2.5-1.1-3.9-1.1c-4.2,0-7.5,3.4-7.5,7.5s3.4,7.5,7.5,7.5s7.5-3.4,7.5-7.5c0-1.4-0.4-2.7-1-3.8L480,58.4
			c1.1,0.7,2.5,1.1,3.9,1.1c4.2,0,7.5-3.4,7.5-7.5S488.1,44.5,483.9,44.5z M459.4,31c0-2.1,1.7-3.8,3.8-3.8s3.8,1.7,3.8,3.8
			s-1.7,3.8-3.8,3.8S459.4,33.1,459.4,31z M463.2,76.3c-2.1,0-3.8-1.7-3.8-3.8s1.7-3.8,3.8-3.8s3.8,1.7,3.8,3.8
			S465.3,76.3,463.2,76.3z M483.9,55.8c-2.1,0-3.8-1.7-3.8-3.8s1.7-3.8,3.8-3.8s3.8,1.7,3.8,3.8S486,55.8,483.9,55.8z"/>
		<path class="st0" d="M442.4,59.6c4.2,0,7.5-3.4,7.5-7.5s-3.4-7.5-7.5-7.5s-7.5,3.4-7.5,7.5S438.3,59.6,442.4,59.6z M442.4,48.3
			c2.1,0,3.8,1.7,3.8,3.8s-1.7,3.8-3.8,3.8c-2.1,0-3.8-1.7-3.8-3.8C438.7,50,440.3,48.3,442.4,48.3L442.4,48.3z"/>
		<path class="st0" d="M483.9,65c-4.2,0-7.5,3.4-7.5,7.5s3.4,7.5,7.5,7.5c4.1,0,7.5-3.4,7.5-7.5S488.1,65,483.9,65z M483.9,76.3
			c-2.1,0-3.8-1.7-3.8-3.8s1.7-3.8,3.8-3.8s3.8,1.7,3.8,3.8S486,76.3,483.9,76.3z"/>
		<path class="st0" d="M458.9,58.4c1.2,0.8,2.6,1.2,4.2,1.2c4.2,0,7.5-3.4,7.5-7.5s-3.4-7.5-7.5-7.5c-1.3,0-2.5,0.3-3.5,0.9
			l-10.7-10.7c0.7-1.1,1-2.4,1-3.8c0-4.2-3.4-7.5-7.5-7.5s-7.5,3.4-7.5,7.5s3.4,7.5,7.5,7.5c1.4,0,2.7-0.4,3.8-1l10.4,10.4
			c-0.8,1.2-1.2,2.6-1.2,4.1c0,1.3,0.3,2.4,0.9,3.5L446.2,66c-1.1-0.7-2.4-1-3.8-1c-4.2,0-7.5,3.4-7.5,7.5s3.4,7.5,7.5,7.5
			s7.5-3.4,7.5-7.5c0-1.4-0.4-2.7-1.1-3.9L458.9,58.4L458.9,58.4z M466.8,52.1c0,2.1-1.7,3.8-3.8,3.8s-3.8-1.7-3.8-3.8
			s1.7-3.8,3.8-3.8S466.8,50,466.8,52.1z M438.6,31c0-2.1,1.7-3.8,3.8-3.8s3.8,1.7,3.8,3.8s-1.7,3.8-3.8,3.8S438.6,33.1,438.6,31
			L438.6,31z M442.4,76.3c-2.1,0-3.8-1.7-3.8-3.8s1.7-3.8,3.8-3.8s3.8,1.7,3.8,3.8C446.2,74.6,444.5,76.3,442.4,76.3L442.4,76.3z"/>
	</g>
</g>
<g>
	<path class="st0" d="M719.2,90l-27.8-27.8c-7.9-7.9-7.9-20.6,0-28.5l27.8-27.8c7.9-7.9,20.6-7.9,28.5,0l27.7,27.9
		c7.9,7.9,7.9,20.6,0,28.5l-27.8,27.8C739.8,97.9,727.1,97.9,719.2,90z"/>
	<path class="st0" d="M733.4,2.4c4.8,0,9.2,1.9,12.6,5.2l27.8,27.8c7,7,7,18.3,0,25.2L746,88.4c-3.4,3.4-7.8,5.2-12.6,5.2
		s-9.2-1.9-12.6-5.2L693,60.6c-7-7-7-18.3,0-25.2l27.8-27.8C724.2,4.3,728.7,2.4,733.4,2.4 M733.4,0.1c-5.1,0-10.3,2-14.2,5.9
		l-27.8,27.8c-7.9,7.9-7.9,20.6,0,28.5l27.8,27.8c3.9,3.9,9.1,5.9,14.2,5.9s10.3-2,14.2-5.9l27.8-27.8c7.9-7.9,7.9-20.6,0-28.5
		L747.6,6C743.7,2.1,738.6,0.1,733.4,0.1L733.4,0.1z"/>
	<g>
		<g>
			<path class="st1" d="M726.2,59.9c0,0.1-0.1,0.2-0.2,0.3c-0.4,0.1-0.7,0.2-1.1,0.2c-0.9,0-1.5-0.3-1.8-1c-0.7,0.7-1.6,1-2.6,1
				c-1.2,0-2.2-0.4-3-1.1c-0.8-0.8-1.2-1.7-1.2-2.9s0.4-2.1,1.2-2.9c0.8-0.8,1.8-1.1,3-1.1c0.8,0,1.6,0.2,2.2,0.7v-0.3
				c0-0.2,0.1-0.2,0.2-0.2h1.5c0.2,0,0.2,0.1,0.2,0.2v5.3c0,0.2,0,0.3,0.1,0.4s0.2,0.2,0.4,0.2s0.4,0,0.6-0.1c0.2,0,0.3,0,0.3,0.2
				L726.2,59.9L726.2,59.9z M720.5,58.8c0.7,0,1.2-0.2,1.6-0.7s0.6-1,0.6-1.8c0-0.7-0.2-1.3-0.6-1.8s-0.9-0.7-1.6-0.7
				s-1.2,0.2-1.6,0.7s-0.6,1-0.6,1.8c0,0.7,0.2,1.3,0.6,1.8C719.3,58.5,719.8,58.8,720.5,58.8z"/>
			<path class="st1" d="M729.5,60.3c-0.7,0-1.2-0.2-1.6-0.5s-0.6-0.7-0.6-1.3v-9.4c0-0.2,0.1-0.2,0.2-0.2h1.5c0.2,0,0.2,0.1,0.2,0.2
				V58c0,0.2,0,0.3,0.1,0.4s0.2,0.2,0.4,0.2s0.4,0,0.6-0.1c0.2,0,0.3,0,0.3,0.2l0.1,1.1c0,0.1,0,0.2-0.2,0.3
				C730.2,60.3,729.8,60.3,729.5,60.3z"/>
			<path class="st1" d="M732.8,50.9c-0.3,0-0.6-0.1-0.9-0.3c-0.2-0.2-0.3-0.5-0.3-0.8s0.1-0.6,0.3-0.8s0.5-0.3,0.9-0.3
				c0.3,0,0.6,0.1,0.8,0.3s0.4,0.5,0.4,0.8s-0.1,0.6-0.4,0.8C733.4,50.8,733.2,50.9,732.8,50.9z M734.1,60.3c-0.7,0-1.2-0.2-1.6-0.5
				s-0.6-0.7-0.6-1.3v-5.7c0-0.2,0.1-0.2,0.2-0.2h1.5c0.2,0,0.2,0.1,0.2,0.2v5.3c0,0.2,0,0.3,0.1,0.4s0.2,0.2,0.4,0.2s0.4,0,0.6-0.1
				c0.2,0,0.3,0,0.3,0.2l0.1,1.1c0,0.1,0,0.2-0.2,0.3C734.8,60.3,734.4,60.3,734.1,60.3z"/>
			<path class="st1" d="M739.7,60.3c-1.1,0-1.9-0.2-2.6-0.7s-1-1.1-1.2-1.8c0-0.2,0.1-0.3,0.2-0.3h1.3c0.1,0,0.2,0.1,0.3,0.2
				c0.2,0.7,0.9,1.1,1.9,1.1c0.5,0,0.8-0.1,1.1-0.2c0.3-0.2,0.4-0.4,0.4-0.6c0-0.3-0.2-0.5-0.5-0.7c-0.3-0.1-0.8-0.2-1.3-0.3
				s-1-0.1-1.5-0.3c-0.5-0.1-0.9-0.3-1.3-0.7c-0.3-0.3-0.5-0.8-0.5-1.4c0-0.7,0.3-1.3,0.9-1.7c0.6-0.4,1.4-0.7,2.4-0.7
				c0.9,0,1.7,0.2,2.3,0.6s1,1,1.1,1.6c0,0.2-0.1,0.3-0.2,0.3h-1.3c-0.1,0-0.2,0-0.3-0.1c-0.1-0.3-0.3-0.5-0.6-0.7s-0.6-0.3-1-0.3
				s-0.8,0.1-1,0.2c-0.3,0.1-0.4,0.3-0.4,0.6s0.1,0.5,0.4,0.6c0.2,0.2,0.6,0.3,0.9,0.3c0.4,0,0.8,0.1,1.2,0.2l1.2,0.3
				c0.4,0.1,0.7,0.3,0.9,0.7c0.2,0.3,0.4,0.7,0.4,1.2c0,0.7-0.3,1.3-0.9,1.8C741.5,60.1,740.7,60.3,739.7,60.3L739.7,60.3z"/>
			<path class="st1" d="M748.2,60.3c-1.3,0-2.3-0.4-3-1.1c-0.8-0.7-1.2-1.7-1.2-2.9s0.4-2.2,1.2-2.9s1.8-1.1,3-1.1
				c1,0,1.8,0.2,2.5,0.7s1.1,1.2,1.3,2c0,0.2,0,0.3-0.2,0.3h-1.5c-0.1,0-0.2-0.1-0.3-0.2c-0.1-0.3-0.3-0.6-0.7-0.8
				c-0.3-0.2-0.7-0.3-1.2-0.3c-0.7,0-1.2,0.2-1.6,0.7c-0.4,0.4-0.6,1-0.6,1.7s0.2,1.3,0.6,1.7c0.4,0.4,1,0.7,1.6,0.7
				c0.5,0,0.8-0.1,1.2-0.3s0.6-0.5,0.7-0.8c0-0.1,0.1-0.2,0.3-0.2h1.5c0.2,0,0.2,0.1,0.2,0.3c-0.2,0.8-0.6,1.5-1.3,2
				C750,60.1,749.2,60.3,748.2,60.3z"/>
			<path class="st1" d="M760.2,59.2c-0.8,0.7-1.8,1.1-3.1,1.1s-2.3-0.4-3.1-1.1c-0.8-0.7-1.2-1.7-1.2-2.9s0.4-2.2,1.2-2.9
				s1.8-1.1,3.1-1.1s2.3,0.4,3.1,1.1c0.8,0.7,1.2,1.7,1.2,2.9S761,58.5,760.2,59.2z M755.5,58c0.4,0.4,1,0.6,1.7,0.6
				s1.2-0.2,1.7-0.6c0.4-0.4,0.6-1,0.6-1.7s-0.2-1.3-0.6-1.7c-0.4-0.4-1-0.6-1.7-0.6s-1.2,0.2-1.7,0.6c-0.4,0.4-0.6,1-0.6,1.7
				S755.1,57.6,755.5,58z"/>
			<path class="st1" d="M714.8,49.1c0.1,0,0.2,0.1,0.2,0.2v6.8c0,1.3-0.4,2.4-1.2,3.1c-0.8,0.7-1.9,1.1-3.2,1.1
				c-1.2,0-2.1-0.3-2.9-0.9s-1.2-1.4-1.3-2.5c0-0.2,0.1-0.3,0.2-0.3h1.5c0.1,0,0.2,0.1,0.2,0.2c0.1,0.5,0.3,0.9,0.7,1.2
				s0.9,0.5,1.6,0.5s1.2-0.2,1.6-0.7s0.6-1.1,0.6-1.8v-4.7c0-0.6-0.7-0.8-1.1-0.8h-0.1c-0.1,0-0.2-0.1-0.2-0.2v-1.1
				c0-0.1,0.1-0.2,0.2-0.2h3.2C714.8,49,714.8,49.1,714.8,49.1z"/>
		</g>
		<g>
			<path class="st1" d="M711.5,64.3c0.5,0,1,0.2,1.1,0.8h-0.4c-0.1-0.3-0.4-0.4-0.7-0.4c-0.5,0-0.8,0.4-0.8,0.9s0.3,0.9,0.8,0.9
				c0.4,0,0.7-0.2,0.8-0.7h-0.8v-0.4h1.2c0,0.7-0.3,1.4-1.2,1.4c-0.7,0-1.3-0.5-1.3-1.3C710.3,64.8,710.9,64.3,711.5,64.3
				L711.5,64.3z"/>
			<path class="st1" d="M714.6,66.9c-0.7,0-1.3-0.5-1.3-1.3s0.6-1.3,1.3-1.3s1.3,0.5,1.3,1.3S715.4,66.9,714.6,66.9z M714.6,66.5
				c0.5,0,0.9-0.3,0.9-0.9s-0.4-0.9-0.9-0.9s-0.9,0.3-0.9,0.9C713.8,66.2,714.1,66.5,714.6,66.5z"/>
			<path class="st1" d="M718.2,65.6c0.3,0.1,0.4,0.3,0.4,0.6c0,0.4-0.3,0.7-0.8,0.7h-1.1v-2.5h1c0.5,0,0.8,0.2,0.8,0.7
				C718.5,65.3,718.4,65.5,718.2,65.6L718.2,65.6z M717.1,64.7v0.7h0.6c0.2,0,0.4-0.1,0.4-0.3s-0.2-0.4-0.4-0.4
				C717.7,64.7,717.1,64.7,717.1,64.7z M717.1,65.8v0.7h0.7c0.2,0,0.4-0.1,0.4-0.4c0-0.1,0-0.2-0.1-0.3c-0.1-0.1-0.2-0.1-0.3-0.1
				h-0.7L717.1,65.8L717.1,65.8z"/>
			<path class="st1" d="M720.4,66.5v0.3h-1.2v-0.3h0.4v-1.8h-0.4v-0.3h1.1v0.3h-0.4v1.8H720.4L720.4,66.5z"/>
			<path class="st1" d="M722.7,64.7h-1.1v0.7h1v0.4h-1v0.7h1.1v0.4h-1.5v-2.5h1.5V64.7z"/>
			<path class="st1" d="M725.6,66.8L725.6,66.8l-0.4,0.1l-0.6-0.9H724v0.9h-0.4v-2.5h1c0.5,0,0.9,0.4,0.9,0.8c0,0.3-0.2,0.6-0.5,0.8
				C725,66,725.6,66.8,725.6,66.8z M724.6,65.7c0.3,0,0.5-0.2,0.5-0.5s-0.2-0.5-0.5-0.5H724v0.9L724.6,65.7L724.6,65.7z"/>
			<path class="st1" d="M726.7,65.2v1.7h-0.4v-2.5h0.2l1.5,1.7v-1.7h0.4v2.5h-0.1L726.7,65.2L726.7,65.2z"/>
			<path class="st1" d="M730.4,66.9c-0.7,0-1.3-0.5-1.3-1.3s0.6-1.3,1.3-1.3s1.3,0.5,1.3,1.3S731.2,66.9,730.4,66.9z M730.4,66.5
				c0.5,0,0.9-0.3,0.9-0.9s-0.4-0.9-0.9-0.9s-0.9,0.3-0.9,0.9C729.6,66.2,730,66.5,730.4,66.5z"/>
			<path class="st1" d="M734.6,64.4c0.8,0,1.2,0.6,1.2,1.2c0,0.7-0.4,1.3-1.2,1.3h-0.9v-2.5H734.6z M734.6,66.5
				c0.5,0,0.8-0.4,0.8-0.9s-0.3-0.9-0.8-0.9h-0.5v1.7h0.5C734.6,66.4,734.6,66.5,734.6,66.5z"/>
			<path class="st1" d="M738.2,64.7h-1.1v0.7h1v0.4h-1v0.7h1.1v0.4h-1.5v-2.5h1.5V64.7z"/>
			<path class="st1" d="M739.4,66.5h1.1v0.4H739v-2.5h0.4V66.5z"/>
			<path class="st1" d="M743.8,64.7h-1.1v0.7h1v0.4h-1v0.7h1.1v0.4h-1.5v-2.5h1.5V64.7z"/>
			<path class="st1" d="M744.9,66.2c0,0.3,0.3,0.4,0.6,0.4s0.6-0.1,0.6-0.4s-0.3-0.4-0.6-0.4c-0.5,0-0.9-0.2-0.9-0.7
				s0.5-0.7,0.9-0.7c0.5,0,0.9,0.2,0.9,0.7H746c0-0.3-0.3-0.4-0.6-0.4c-0.2,0-0.5,0.1-0.5,0.4s0.3,0.3,0.6,0.4c0.5,0.1,1,0.2,1,0.7
				c0,0.6-0.5,0.7-1,0.7s-1-0.2-1-0.7H744.9z"/>
			<path class="st1" d="M747,64.7v-0.4h1.9v0.4h-0.8v2.1h-0.4v-2.1H747z"/>
			<path class="st1" d="M749.7,66.4l-0.2,0.5h-0.4v-0.1l1.2-2.5h0.2l1.2,2.5v0.1h-0.6l-0.2-0.5H749.7z M749.9,66h0.9l-0.4-1
				L749.9,66z"/>
			<path class="st1" d="M753.1,64.4c0.8,0,1.2,0.6,1.2,1.2c0,0.7-0.4,1.3-1.2,1.3h-0.9v-2.5H753.1z M753.1,66.5
				c0.5,0,0.8-0.4,0.8-0.9s-0.3-0.9-0.8-0.9h-0.5v1.7h0.5C753.1,66.4,753.1,66.5,753.1,66.5z"/>
			<path class="st1" d="M756.2,66.9c-0.7,0-1.3-0.5-1.3-1.3s0.6-1.3,1.3-1.3s1.3,0.5,1.3,1.3S757,66.9,756.2,66.9z M756.2,66.5
				c0.5,0,0.9-0.3,0.9-0.9s-0.4-0.9-0.9-0.9s-0.9,0.3-0.9,0.9C755.4,66.2,755.8,66.5,756.2,66.5z"/>
		</g>
		<g>
			<g>
				<g>
					<path class="st1" d="M733.6,18.8v1.4c0,0,0.2-0.1,0.6,0l0,0v-1.4C733.9,18.7,733.6,18.8,733.6,18.8z"/>
					<path class="st1" d="M727.9,19.1c0,0.1,0.1,0.2,0.1,0.2c0.6,0.3,1.2,0.4,1.8,0.4c0.8,0,1.6-0.3,2.4-0.8c1-0.7,2.4-0.7,3.4-0.1
						c-0.2,0.2-0.4,0.3-0.9,0.3h-0.2v0.5h0.2c1,0,1.4-0.7,1.5-0.8l0,0v-3c0-0.1,0-0.2-0.1-0.2c-1.2-0.8-2.9-0.8-4.2,0
						c-1.1,0.8-2.5,0.9-3.7,0.3c-0.1-0.1-0.2,0-0.3,0.1c-0.1,0.1,0,0.2,0,0.3l1.6,1.4l-1.6,1.2C727.9,19,727.8,19.1,727.9,19.1z
						 M730.1,18c0.1,0,0.1-0.1,0.1-0.2s0-0.1-0.1-0.2l-1-0.8c1.1,0.2,2.1-0.1,3.1-0.7c1-0.7,2.5-0.7,3.5-0.1v2.4
						c-1.2-0.6-2.7-0.5-3.8,0.2c-1,0.7-2.2,0.9-3.3,0.5C728.6,19.1,730.1,18,730.1,18z"/>
					<polygon class="st1" points="733.6,17.6 734.2,17.6 734.2,17 734.7,17 734.7,16.5 734.2,16.5 734.2,16 733.6,16 733.6,16.5 
						733.1,16.5 733.1,17 733.6,17 					"/>
					<path class="st1" d="M745.8,37.8c0.2-0.2,0.4-0.4,0.5-0.6c0.7-0.8,1.5-1.7,2-2.8c0.4-0.9,0.6-1.9,0.5-2.7
						c-0.2-1.5-1.2-2.8-2.6-3.4c0.2-0.4,0.3-0.8,0.3-1.3l0,0c0-0.1-0.1-0.2-0.2-0.2s-0.2,0-0.3,0.1s-0.3,0.2-0.5,0.3h-0.6
						c-0.6-0.2-1.2-0.3-1.8-0.3c-0.3,0-0.5,0-0.7,0.1l0,0c0-0.2,0-0.4-0.1-0.5c0-0.1-0.1-0.1-0.2-0.2h-0.2c-0.1,0.1-0.2,0.1-0.4,0.1
						h-1.1c-0.2,0-0.4,0.1-0.5,0.1c-0.2,0.1-0.3,0.1-0.5,0.2s-0.3,0.2-0.5,0.3s-0.3,0.2-0.4,0.3s-0.3,0.2-0.4,0.4
						c-0.1,0.1-0.2,0.2-0.2,0.3c-0.1,0.1-0.1,0.2-0.2,0.3c-0.1,0.2-0.2,0.4-0.4,0.6V29l0,0c0,0.1-0.1,0.1-0.1,0.2s-0.1,0.1-0.1,0.2
						c-0.1,0.1-0.1,0.2-0.2,0.2l-0.1,0.1c-0.1,0-0.1,0.1-0.2,0.1l0,0l-0.8-0.6l-0.1-0.8c0.1-0.1,0.1-0.2,0.2-0.3l0,0
						c0,0,0-0.1,0.1-0.1l0,0c0,0,0-0.1,0.1-0.1l0,0v-0.1h0.2l0.2-1.3l0,0l-0.2-0.1v-0.3c0-0.2-0.1-0.3-0.2-0.5l0,0
						c-0.2-0.4-0.5-0.7-1-0.8l0,0v-0.1c0.2-0.3,0.4-0.6,0.8-0.8c0.1,0.1,0.1,0.2,0.1,0.2c0,0.1,0.1,0.2,0.3,0.2c0.1,0,0.1,0,0.2-0.1
						c0.1-0.1,0.2-0.2,0.2-0.3c0.3-0.5,0.4-1.1,0.1-1.7c-0.2-0.4-0.6-0.7-1-0.7c-0.1,0-0.3,0-0.4,0.1c-0.2-0.4-0.7-0.7-1.2-0.7
						s-1,0.3-1.2,0.7c-0.2-0.1-0.3-0.1-0.4-0.1c-0.4,0-0.8,0.3-1,0.7c-0.2,0.5-0.2,1.2,0.1,1.7c0.1,0.1,0.1,0.2,0.2,0.3
						c0.1,0,0.1,0.1,0.2,0.1s0.2,0,0.3-0.2c0,0,0-0.1,0.1-0.2c0.3,0.2,0.6,0.5,0.8,0.8v0.1l0,0c-0.4,0.1-0.8,0.5-1,0.8l0,0
						c-0.1,0.1-0.1,0.3-0.2,0.5v0.3l-0.2,0.1l0,0l0.2,1.3h0.2v0.1l0,0c0,0,0,0.1,0.1,0.1l0,0c0,0,0,0.1,0.1,0.1l0,0
						c0,0.1,0.1,0.2,0.2,0.3l-0.1,0.8l-0.8,0.6c-0.2-0.1-0.3-0.3-0.4-0.4c0,0,0-0.1-0.1-0.1c-0.1-0.1-0.2-0.2-0.3-0.3l0,0v-0.1
						c-0.1-0.2-0.2-0.4-0.4-0.6c-0.1-0.1-0.1-0.2-0.2-0.3s-0.1-0.2-0.2-0.3s-0.3-0.3-0.4-0.4c-0.1-0.1-0.3-0.2-0.4-0.3
						c-0.2-0.1-0.3-0.2-0.5-0.3s-0.3-0.1-0.5-0.2s-0.4-0.1-0.5-0.1h-1.1c-0.1,0-0.2,0-0.4-0.1h-0.2c-0.1,0-0.1,0.1-0.2,0.2
						c-0.1,0.2-0.1,0.4-0.1,0.5v0.1c-0.3,0-0.6-0.1-0.8-0.1c-0.6,0-1.2,0.1-1.8,0.3l0,0c-0.2,0.1-0.4,0.1-0.6,0
						c-0.2,0-0.4-0.1-0.5-0.3c-0.1-0.1-0.2-0.1-0.3-0.1s-0.2,0.1-0.2,0.2l0,0c-0.1,0.4,0,0.9,0.3,1.3c-1.3,0.6-2.3,1.8-2.6,3.4
						c-0.1,0.9,0,1.8,0.5,2.7c0.5,1.1,1.3,1.9,2,2.8c0.2,0.2,0.4,0.4,0.5,0.6c0.1,0.1,0.1,0.1,0.2,0.2c0.5,0.5,1,1.1,1,1.7
						s-0.4,1-1,1c-0.1,0-0.3,0-0.4-0.1h-0.1c0,0-0.5-0.1-0.7,0.4h-0.1c-0.3,0.1-0.4,0.3-0.4,0.6l0,0c0.2,1.5,1.5,2.7,3,2.7l0,0
						c0.7,0,1.4-0.3,1.9-0.7l0,0c0.1,0.1,0.2,0.2,0.4,0.2c0.1,0,0.2,0,0.3-0.1c0.4-0.3,0.8-0.7,1-1.1l0,0c0,0,0-0.1,0.1-0.1
						c0,0,0,0.1,0.1,0.1c0,0.1,0.1,0.1,0.1,0.2c1.4,2.1,3.9,3.4,6.6,3.4s5.2-1.3,6.6-3.4c0-0.1,0.1-0.1,0.1-0.2c0,0,0-0.1,0.1-0.1
						c0,0,0,0.1,0.1,0.1l0,0c0.2,0.4,0.6,0.8,1,1.1c0.1,0.1,0.2,0.1,0.3,0.1s0.3-0.1,0.4-0.2l0,0c0.5,0.4,1.2,0.7,1.9,0.7l0,0
						c1.5,0,2.8-1.2,3-2.7l0,0c0-0.3-0.1-0.5-0.4-0.6h-0.1c-0.1-0.5-0.7-0.4-0.7-0.4h-0.1c-0.1,0-0.2,0.1-0.4,0.1c-0.6,0-1-0.4-1-1
						s0.5-1.2,1-1.7C745.7,37.9,745.8,37.9,745.8,37.8L745.8,37.8z M743.2,27.3c0.6,0,1.1,0.1,1.6,0.3l0,0c0.3,0.1,0.6,0.1,0.9,0.1
						c0.1,0,0.2-0.1,0.3-0.1c0,0.2-0.1,0.4-0.2,0.5c0,0-0.7-0.1-1.1-0.1c-1.4,0-2.6,0.7-3.3,1.8c-0.1-0.2-0.3-0.4-0.6-0.4h-1.6
						C740.2,28.1,741.6,27.3,743.2,27.3L743.2,27.3z M743.7,33.9L743.7,33.9c0,0.1,0.4,1.1,1.5,1.1h0.1c-1.2,1.2-2.8,1.8-3.9,3.1
						v-4.3l0.1-0.1c0.3-0.3,0.6-0.7,0.9-1c0.5-0.5,1-0.9,1.7-1c0.3,0,0.6,0,0.8,0.1c0.1,0.1,0.3,0.2,0.3,0.3c0,0,0.2,0.5-0.2,0.8
						l-0.1,0.1c-0.1,0.1-0.2,0.1-0.4,0.1h-0.3c-0.1,0-0.2-0.1-0.3,0c-0.2,0-0.3,0.1-0.4,0.2C743.8,33.3,743.6,33.5,743.7,33.9
						L743.7,33.9z M735.8,26.5l-0.1,0.5l0,0l-0.3,0.1l-0.2,0.1v-0.7c0.1,0,0.2,0.1,0.3,0.1C735.6,26.4,735.7,26.4,735.8,26.5z
						 M733.9,27.9L733.9,27.9l1.4-0.3l0,0c-0.1,0.1-0.1,0.2-0.2,0.3c0,0.1-0.1,0.1-0.1,0.2c-0.3,0.3-0.6,0.6-1,0.6s-0.8-0.3-1-0.6
						c-0.1-0.1-0.1-0.1-0.1-0.2c-0.1-0.1-0.1-0.2-0.2-0.3l0,0L733.9,27.9L733.9,27.9z M733.1,27.1v-0.9c0.2,0,0.4-0.1,0.5-0.1v1.2
						L733.1,27.1z M734.2,27.3v-1.2c0.1,0,0.3,0.1,0.5,0.1v0.9L734.2,27.3z M732.4,22.9c0.1-0.2,0.2-0.3,0.4-0.4c0,0-0.5,0-1,0.5
						c-0.1-0.3-0.1-0.7,0-1s0.3-0.4,0.6-0.4c0.2,0,0.4,0,0.5,0.1c0.4,0.2,0.7,0.6,0.8,1.1c0,0,0.1-0.6-0.3-1.2
						c0-0.1-0.1-0.1-0.1-0.2c0.1-0.3,0.4-0.5,0.7-0.5s0.6,0.2,0.7,0.5c0,0-0.1,0.1-0.1,0.2c-0.5,0.6-0.3,1.2-0.3,1.2
						c0.1-0.5,0.4-0.8,0.8-1.1c0.2-0.1,0.4-0.1,0.5-0.1c0.2,0,0.4,0.2,0.6,0.4c0.1,0.3,0.1,0.7,0,1c-0.5-0.5-1-0.5-1-0.5
						c0.2,0.1,0.3,0.2,0.4,0.4c-0.4,0.2-0.8,0.6-1,1.1v0.2c-0.1-0.1-0.3-0.1-0.4-0.2l0,0c-0.1,0.1-0.3,0.2-0.4,0.2V24
						C733.2,23.6,732.8,23.2,732.4,22.9z M733.2,24.9c0.1,0,0.2-0.1,0.4-0.1c0.1,0,0.2-0.1,0.4-0.2c0.1,0.1,0.2,0.1,0.4,0.2
						c0.1,0,0.3,0.1,0.4,0.1c0.4,0.2,0.7,0.5,0.8,1c-1.4-0.4-1.5-0.4-1.6-0.4l0,0c0,0-0.1,0-1.6,0.4C732.5,25.4,732.7,25,733.2,24.9
						L733.2,24.9z M732.1,26.9L732.1,26.9l-0.1-0.5c0.1,0,0.2,0,0.3-0.1c0.1,0,0.2-0.1,0.3-0.1v0.7l-0.2-0.1L732.1,26.9z
						 M732.7,29.2l0.1-0.5l0,0c0.3,0.3,0.7,0.5,1.1,0.5l0,0c0.4,0,0.8-0.2,1.1-0.5l0,0l0.1,0.5l0.9,0.6l-0.1,0.1
						c-0.4,0.2-0.8,0.4-1.2,0.5c-0.3,0.1-0.5,0.1-0.8,0.1c-0.2,0-0.5,0-0.7-0.1c-0.4-0.1-0.9-0.3-1.3-0.5c-0.1,0-0.1-0.1-0.2-0.1
						L732.7,29.2L732.7,29.2z M722,27.7c0.3,0.1,0.6,0,0.9-0.1l0,0c0.5-0.2,1.1-0.3,1.6-0.3c1.6,0,3,0.8,3.9,2.1h-1.6
						c-0.3,0-0.5,0.2-0.6,0.4c-0.7-1.1-1.9-1.8-3.3-1.8c-0.4,0-1.1,0.1-1.1,0.1c-0.1-0.2-0.2-0.3-0.2-0.5
						C721.8,27.6,721.9,27.6,722,27.7L722,27.7z M726.9,41.3L726.9,41.3L726.9,41.3v0.2l0,0c0,0.2-0.1,0.4-0.2,0.6l0,0v0.2
						c-0.2,0.4-0.5,0.7-0.9,1c0.3-0.5,0.5-1,0.5-1.7c0-0.3,0-0.5-0.1-0.8l0,0c0,0.6-0.2,1.2-0.5,1.7l0,0c-0.4,0.8-1.3,1.3-2.2,1.3
						l0,0c-1.2,0-2.3-1-2.5-2.3l0,0c0.3,0.5,0.9,0.9,1.6,0.9c1,0,1.8-0.8,1.9-1.8c-0.1,0.4-0.4,0.7-0.8,1l0,0
						c-0.1,0.1-0.2,0.1-0.3,0.1c-0.5,0.2-1.4,0.3-1.9-0.7h0.1c0.1,0,0.2,0.1,0.3,0.1h0.8c0.1,0,0.3-0.1,0.4-0.1
						c0.1-0.1,0.2-0.1,0.3-0.2c0.1-0.1,0.2-0.2,0.2-0.3c0.1-0.1,0.1-0.2,0.1-0.4c0-0.1,0.1-0.3,0.1-0.4c0-0.9-0.8-1.6-1.3-2.3
						c-0.9-1-1.9-2-2.5-3.3c-0.4-0.8-0.5-1.6-0.4-2.4c0.2-1.8,1.7-3.2,3.6-3.2c1.2,0,2.3,0.7,2.9,1.7c0.1,0.1,0.4,0.7,0.4,1.2v1.5
						l0,0c-0.4-0.4-0.8-0.9-1.2-1.2c-0.7-0.5-1.8-0.9-2.6-0.4c-0.7,0.4-0.9,1.3-0.5,2c0,0,0.5,0.7,1.4,0.5c0,0-0.3,1-1.4,0.5
						c-0.1,0-0.2-0.1-0.2-0.1c-0.1-0.1-0.3-0.2-0.4-0.3s-0.1-0.1-0.2-0.2c-0.1-0.1-0.1-0.2-0.2-0.3s-0.1-0.3-0.1-0.4
						c-0.1-0.4,0-0.9,0.2-1.3c0.3-0.6,0.9-1.1,1.5-1.3c0.7-0.2,1.5-0.1,2.2,0.3c0.1,0.1,0.2,0.1,0.3,0.2s0.1,0.1,0.2,0.2
						c-0.3-0.7-1.3-1.1-2-1.2c-0.9,0-1.8,0.4-2.3,1.1c-0.5,0.6-0.7,1.5-0.6,2.3c0.2,0.9,0.9,1.6,1.4,2.3c1,1.2,2,2.4,2.8,3.7
						c0.3,0.5,0.4,1.1,0.4,1.7c0,1.2-1,2.2-2.1,2.2h0.4c0.3,0,0.6-0.1,0.9-0.2c0.5-0.2,0.9-0.6,1.2-1c1-1.9-0.6-3.8-1.7-5.2
						c-0.1-0.1-0.4-0.5-0.6-0.7l1.3,0.9c0.3,0.2,0.5,0.4,0.8,0.6c0.4,0.3,0.7,0.6,1,1C726.5,39.3,727,40.2,726.9,41.3L726.9,41.3z
						 M722.4,35L722.4,35c1.2,0,1.6-1,1.6-1v-0.1c0.1-0.3-0.1-0.6-0.1-0.6c-0.1-0.1-0.3-0.2-0.4-0.2h-0.6c-0.1,0-0.3-0.1-0.4-0.1
						l-0.1-0.1c-0.4-0.4-0.2-0.8-0.2-0.8c0.1-0.1,0.2-0.3,0.3-0.3c0.2-0.1,0.5-0.1,0.8-0.1c0.7,0.1,1.2,0.5,1.7,1
						c0.3,0.3,0.6,0.7,0.9,1l0.1,0.1v4.3C725.1,36.8,723.5,36.2,722.4,35L722.4,35z M740.3,41.3L740.3,41.3c0,0.2,0,0.3,0.1,0.5l0,0
						c-0.1,0.2-0.2,0.4-0.3,0.6c0,0.1-0.1,0.1-0.1,0.2c-1.2,1.9-3.5,3.2-6.1,3.2s-4.9-1.3-6.1-3.2c0-0.1-0.1-0.1-0.1-0.2
						c-0.1-0.2-0.2-0.4-0.3-0.6l0,0c0-0.2,0.1-0.3,0.1-0.5l0,0c0.1-0.8-0.1-1.6-0.6-2.4l0,0V30h2.5l-0.3-0.5l0,0
						c-0.7-1.2-1.8-2.1-3.1-2.5v-0.3h0.8c0.2,0,0.4,0,0.6,0.1c0.2,0,0.4,0.1,0.5,0.1c0.2,0.1,0.3,0.1,0.5,0.2s0.3,0.2,0.5,0.3
						c0.1,0.1,0.3,0.2,0.4,0.4c0.1,0.1,0.3,0.3,0.4,0.4c0.1,0.2,0.2,0.4,0.4,0.6c0.1,0.2,0.3,0.4,0.4,0.5s0.2,0.2,0.3,0.3
						c0.1,0.1,0.1,0.1,0.2,0.2l0,0c0.1,0,0.1,0.1,0.2,0.1l0,0c0.1,0,0.1,0.1,0.2,0.1l0,0c0.1,0,0.1,0.1,0.2,0.1l0,0
						c0.3,0.2,0.5,0.3,0.8,0.4l0,0c0,0,0.1,0,0.2,0.1c0.1,0,0.3,0.1,0.4,0.1c0.3,0.1,0.7,0.1,1,0.2c0.4,0,0.7-0.1,1-0.2
						c0.1,0,0.3-0.1,0.4-0.1s0.1,0,0.2-0.1l0,0c0.3-0.1,0.5-0.2,0.8-0.4l0,0c0.1,0,0.1-0.1,0.2-0.1l0,0c0.1,0,0.1-0.1,0.2-0.1h0.1
						l0.1-0.1l0,0l0.1-0.1l0,0c0.1-0.1,0.2-0.2,0.3-0.3c0.1-0.1,0.1-0.2,0.2-0.2v-0.1c0.1-0.1,0.1-0.1,0.2-0.2l0,0
						c0-0.1,0.1-0.1,0.1-0.2c0.1-0.1,0.2-0.3,0.3-0.4c0.1-0.2,0.2-0.3,0.4-0.4c0.1-0.1,0.3-0.3,0.4-0.4c0.1-0.1,0.3-0.2,0.5-0.3
						s0.3-0.2,0.5-0.2c0.2-0.1,0.4-0.1,0.5-0.1c0.2,0,0.4-0.1,0.6-0.1h0.8V27c-1.4,0.4-2.5,1.2-3.2,2.5l0,0l-0.3,0.5h2.5v8.9l0,0
						C740.4,39.6,740.2,40.5,740.3,41.3L740.3,41.3z M744.1,39.7c0,0.1,0,0.3,0.1,0.4c0,0.1,0.1,0.3,0.1,0.4
						c0.1,0.1,0.1,0.2,0.2,0.3s0.2,0.2,0.3,0.2c0.1,0.1,0.2,0.1,0.4,0.1h0.8c0.1,0,0.2-0.1,0.3-0.1h0.1c-0.5,1-1.4,0.8-1.9,0.7
						c-0.1,0-0.2-0.1-0.3-0.1l0,0c-0.4-0.2-0.7-0.6-0.8-1c0.1,1,0.9,1.8,1.9,1.8c0.7,0,1.2-0.3,1.6-0.9l0,0
						c-0.1,1.3-1.3,2.3-2.5,2.3l0,0c-0.9,0-1.8-0.5-2.2-1.3l0,0c-0.3-0.5-0.5-1.1-0.5-1.7l0,0c-0.1,0.3-0.1,0.5-0.1,0.8
						c0,0.6,0.2,1.2,0.5,1.7c-0.4-0.3-0.7-0.6-0.9-1v-0.2l0,0c-0.1-0.2-0.1-0.4-0.2-0.6l0,0v-0.1l0,0v-0.1c-0.1-1,0.4-2,0.9-2.7
						c0.3-0.4,0.7-0.7,1-1c0.3-0.2,0.5-0.4,0.8-0.6l1.3-0.9c-0.2,0.2-0.5,0.6-0.6,0.7c-1.1,1.4-2.7,3.3-1.7,5.2
						c0.2,0.5,0.7,0.8,1.2,1c0.3,0.1,0.6,0.2,0.9,0.2h0.4c-1.2-0.1-2.1-1-2.1-2.2c0-0.6,0.1-1.2,0.4-1.7c0.7-1.4,1.8-2.5,2.8-3.7
						c0.6-0.7,1.3-1.4,1.4-2.3c0.1-0.8,0-1.6-0.6-2.3c-0.5-0.7-1.4-1.1-2.3-1.1c-0.8,0-1.7,0.4-2,1.2c0.1-0.1,0.1-0.1,0.2-0.2
						c0.1-0.1,0.2-0.1,0.3-0.2c0.6-0.3,1.5-0.5,2.2-0.3c0.6,0.2,1.2,0.7,1.5,1.3c0.2,0.4,0.3,0.9,0.2,1.3c0,0.1-0.1,0.3-0.1,0.4
						s-0.1,0.2-0.2,0.3c0,0.1-0.1,0.1-0.2,0.2c-0.1,0.1-0.2,0.2-0.4,0.3c-0.1,0-0.2,0.1-0.2,0.1c-1.1,0.4-1.4-0.5-1.4-0.5
						c1,0.3,1.4-0.5,1.4-0.5c0.5-0.7,0.2-1.6-0.5-2c-0.8-0.5-1.9-0.1-2.6,0.4c-0.5,0.3-0.8,0.8-1.2,1.2l0,0v-1.5
						c0-0.5,0.3-1.1,0.4-1.2c0.6-1,1.6-1.7,2.9-1.7c1.9,0,3.3,1.4,3.6,3.2c0.1,0.8-0.1,1.7-0.4,2.4c-0.6,1.2-1.6,2.2-2.5,3.3
						C744.9,38.1,744.1,38.8,744.1,39.7L744.1,39.7z"/>
				</g>
				<g>
					<path class="st1" d="M734.8,39.2L734.8,39.2c0-0.2-0.1-0.3-0.2-0.3v0.8l0.9-0.3c0,0.2,0.1,0.4,0.3,0.5c0.1,0.1,0.2,0.2,0.2,0.4
						c-0.2,0.1-0.6,0.3-0.7,0.3c0,0.1-0.1,0.2-0.1,0.3s0,0.2,0.1,0.3c-0.2,0-0.3-0.1-0.5-0.2v-0.2c0-0.1-0.1-0.2-0.2-0.2v0.8l0,0
						c0.2,0.2,0.5,0.3,0.8,0.3c0.1,0,0.2,0.1,0.2,0.2c0,0,0.1,0,0.1-0.1v-0.4c0-0.1,0-0.2,0.1-0.3h1.2v0.1c-0.1,0.1-0.2,0.1-0.3,0.1
						h-0.1c0.1,0.2,0.2,0.4,0.2,0.5c0.1,0,0.2,0.1,0.3,0.1s0.2,0,0.3-0.1c0,0.2-0.1,0.3-0.2,0.5H737c-0.1,0-0.2,0.1-0.2,0.2h0.8
						c0.2-0.2,0.3-0.5,0.3-0.8c0-0.1,0.1-0.2,0.2-0.2c0,0,0-0.1-0.1-0.1h-0.4c-0.1,0-0.2,0-0.3-0.1v-0.6h0.2c0.4,0,0.8-0.4,0.8-0.8
						c0-0.1,0-0.2-0.1-0.3l-0.1-0.1c-0.1-0.2-0.2-0.5-0.1-0.7c0-0.2,0.1-0.4,0.2-0.6l0,0c0.1,0,0.1,0,0.1-0.1
						c0.1-0.1,0.2-0.2,0.2-0.3l0,0v-0.1h-0.1c0,0-0.1,0-0.1,0.1c0,0-0.1,0-0.1,0.1c0,0-0.1,0-0.1,0.1c0,0,0,0.1-0.1,0.1l0,0
						c-0.2,0.2-0.2,0.5-0.3,0.7c0,0.3,0,0.5,0.2,0.8l0.1,0.1c0,0.1,0.1,0.2,0.1,0.3c0,0.3-0.3,0.6-0.6,0.6l0,0
						c-0.2,0-0.3-0.1-0.4-0.2l-0.1-0.1c-0.1-0.2-0.2-0.4-0.2-0.6l0,0c0.1,0.1,0.2,0.1,0.2,0.2l0,0v-0.4c0-0.1,0-0.1,0.1-0.2v0.1l0,0
						c0-0.1,0.1-0.2,0.1-0.3V39c0,0,0-0.1,0.1-0.1c0,0,0-0.1,0.1-0.1l0,0c0-0.3-0.2-0.6-0.4-0.8h0.1c-0.2-0.2-0.5-0.2-0.7-0.2h-0.1
						v0.1l0,0c-0.1,0-0.2,0.1-0.2,0.1l-0.3,0.1v0.1l0,0c0,0,0,0.2,0.1,0.2h0.3c0,0,0.1,0.1,0,0.2H736v0.2h0.3c0.1,0,0.2,0,0.3-0.1
						c0,0,0,0.1-0.2,0.1h-0.2c-0.1,0.1-0.3,0.1-0.3,0.3c-0.1,0-0.9-0.4-0.9-0.4l0,0v-0.2c0-0.1-0.1-0.2-0.2-0.2h-0.1v0.6l0.7,0.5
						l0.3-0.1h0.1v0.1L734.8,39.2L734.8,39.2z"/>
					<path class="st1" d="M731.1,41.5c-0.1,0-0.2,0.1-0.3,0.1s-0.2,0-0.3-0.1c0,0.2,0.1,0.3,0.2,0.5h0.2c0.1,0,0.2,0.1,0.2,0.2h-0.8
						c-0.2-0.2-0.3-0.5-0.3-0.8c0-0.1-0.1-0.2-0.2-0.2c0,0,0-0.1,0.1-0.1h0.4c0.1,0,0.2,0,0.3-0.1v-0.6h-0.2c-0.4,0-0.8-0.4-0.8-0.8
						c0-0.1,0-0.2,0.1-0.3l0.1-0.1c0.1-0.2,0.2-0.5,0.1-0.7c0-0.2-0.1-0.4-0.2-0.6l0,0c-0.1,0-0.1,0-0.1-0.1
						c-0.1-0.1-0.2-0.2-0.2-0.3l0,0v-0.1h0.1c0,0,0.1,0,0.1,0.1c0,0,0.1,0,0.1,0.1c0,0,0.1,0,0.1,0.1c0,0,0,0.1,0.1,0.1l0,0
						c0.2,0.2,0.2,0.5,0.3,0.7c0,0.3,0,0.5-0.2,0.8l-0.1,0.1c0,0.1-0.1,0.2-0.1,0.3c0,0.3,0.3,0.6,0.6,0.6l0,0
						c0.2,0,0.3-0.1,0.4-0.2l0.1-0.1c0.1-0.2,0.2-0.4,0.2-0.6l0,0c-0.1,0.1-0.2,0.1-0.2,0.2l0,0v-0.4c0-0.1,0-0.1-0.1-0.2v0.1l0,0
						c0-0.1-0.1-0.2-0.1-0.3v-0.1c0,0,0-0.1-0.1-0.1c0,0,0-0.1-0.1-0.1l0,0c0-0.3,0.2-0.6,0.4-0.8h-0.1c0.2-0.2,0.5-0.2,0.7-0.2h0.1
						v0.1l0,0c0.1,0,0.2,0.1,0.2,0.1l0.3,0.1v0.1l0,0c0,0,0,0.2-0.1,0.2h-0.3c0,0-0.1,0.1,0,0.2h0.2v0.2h-0.3c-0.1,0-0.2,0-0.3-0.1
						c0,0,0,0.1,0.2,0.1h0.2c0.1,0.1,0.3,0.1,0.3,0.3c0.1,0,0.9-0.4,0.9-0.4l0,0v-0.2c0-0.1,0.1-0.2,0.2-0.2h0.1v0.6l-0.7,0.5
						l-0.3-0.1h-0.1v0.1l0.8,0.4v-0.1c0-0.1,0.1-0.2,0.2-0.2V40l-0.9-0.3c0,0.2-0.1,0.4-0.3,0.5c-0.1,0.1-0.2,0.2-0.2,0.4
						c0.2,0.1,0.6,0.3,0.7,0.3c0,0.1,0.1,0.2,0.1,0.3s0,0.2-0.1,0.3c0.2,0,0.3-0.1,0.5-0.2v-0.2c0-0.1,0.1-0.2,0.2-0.2v0.8l0,0
						c-0.2,0.2-0.5,0.3-0.8,0.3c-0.1,0-0.2,0.1-0.2,0.2c0,0-0.1,0-0.1-0.1v-0.4c0-0.1,0-0.2-0.1-0.3h-0.4l0.1-0.4h-0.1L731.1,41.5
						L731.1,41.5z"/>
				</g>
				<path class="st1" d="M736.4,33c-0.3-0.6-0.9-1-1.6-1c-0.3-0.1-0.6-0.2-0.9-0.2s-0.6,0.1-0.9,0.2c-0.7,0-1.3,0.4-1.6,1
					c-0.5,0.3-0.8,0.8-0.8,1.3s0.2,0.9,0.5,1.1c0.2,0.6,0.8,1.1,1.4,1.2c0.6,0.1,1,0.6,1,1.2v3.3c0,0.1-0.1,0.8-0.9,0.9h-0.2
					c-0.1,0-0.3,0.1-0.3,0.3h3.4c0-0.1-0.1-0.3-0.3-0.3H735c-0.9-0.1-0.9-0.9-0.9-0.9v-3.3c0-0.6,0.4-1.1,1-1.2l0,0
					c0.7-0.1,1.2-0.5,1.5-1.2c0.3-0.3,0.5-0.7,0.5-1.1C737.2,33.7,736.9,33.2,736.4,33z M736.4,35.1L736.4,35.1l-0.1,0.2
					c-0.2,0.4-0.5,0.7-0.9,0.8l0,0c0,0-0.3,0.1-0.4,0.1l0,0c0,0,0,0.1-0.1,0.1l0,0l-0.1,0.1c0,0-0.1,0-0.1,0.1
					c-0.2,0.2-0.5,0.2-0.8,0.2s-0.6-0.1-0.8-0.2c0,0-0.1,0-0.1-0.1l-0.1-0.1l0,0l-0.1-0.1l0,0c-0.1-0.1-0.4-0.1-0.4-0.1l0,0
					c-0.4-0.1-0.7-0.4-0.9-0.8v-0.1l-0.1-0.1c-0.2-0.2-0.3-0.5-0.3-0.8c0-0.4,0.2-0.7,0.5-0.9l0.1-0.1l0.1-0.1
					c0.2-0.5,0.7-0.7,1.2-0.8h0.1l0.1-0.1c0.2-0.1,0.4-0.2,0.6-0.2s0.4,0.1,0.6,0.2l0.1,0.1h0.1c0.5,0,1,0.3,1.2,0.8l0.1,0.1
					l0.1,0.1c0.3,0.2,0.5,0.5,0.5,0.9C736.7,34.6,736.6,34.9,736.4,35.1L736.4,35.1z"/>
			</g>
			<path class="st1" d="M737.1,31c-0.4,0.2-0.7,0.4-1.1,0.5h3.3v7.2c0,0.4,0,0.8-0.1,1.2c-0.1,0.5-0.3,0.9-0.5,1.3l-0.1,0.1
				c-1,1.7-2.8,2.7-4.7,2.7s-3.7-1-4.7-2.7l-0.1-0.1c-0.2-0.4-0.4-0.9-0.5-1.3c-0.1-0.4-0.1-0.8-0.1-1.2v-7.2h3.4
				c-0.5-0.1-0.9-0.3-1.1-0.5h-2.7v7.7c0,0.5,0.1,0.9,0.2,1.3c0.1,0.5,0.3,1,0.5,1.4c0,0.1,0.1,0.1,0.1,0.2c1,1.8,2.9,2.9,5.1,2.9
				s4.1-1.2,5.1-2.9c0-0.1,0.1-0.1,0.1-0.2c0.2-0.4,0.4-0.9,0.5-1.4c0.1-0.4,0.2-0.9,0.2-1.3V31H737.1L737.1,31z"/>
			<polygon class="st1" points="740.7,31.2 740.5,31 740.3,31.3 740.1,31 740,31.2 740.2,31.4 740,31.6 740.1,31.7 740.3,31.5 
				740.5,31.7 740.7,31.6 740.4,31.4 			"/>
			<polygon class="st1" points="727.8,31.2 727.7,31 727.4,31.3 727.2,31 727.1,31.2 727.3,31.4 727.1,31.6 727.2,31.7 727.4,31.5 
				727.7,31.7 727.8,31.6 727.6,31.4 			"/>
			<polygon class="st1" points="740.7,36.7 740.5,36.6 740.3,36.8 740.1,36.6 740,36.7 740.2,36.9 740,37.1 740.1,37.2 740.3,37 
				740.5,37.2 740.7,37.1 740.4,36.9 			"/>
			<polygon class="st1" points="727.8,36.7 727.7,36.6 727.4,36.8 727.2,36.6 727.1,36.7 727.3,36.9 727.1,37.1 727.2,37.2 
				727.4,37 727.7,37.2 727.8,37.1 727.6,36.9 			"/>
			<polygon class="st1" points="729.1,42.4 728.9,42.3 728.7,42.5 728.5,42.3 728.4,42.4 728.6,42.6 728.4,42.9 728.5,43 
				728.7,42.7 728.9,43 729.1,42.9 728.8,42.6 			"/>
			<polygon class="st1" points="739.4,42.4 739.3,42.3 739.1,42.5 738.8,42.3 738.7,42.4 738.9,42.6 738.7,42.9 738.8,43 
				739.1,42.7 739.3,43 739.4,42.9 739.2,42.6 			"/>
			<polygon class="st1" points="734.2,44.9 734.1,44.8 733.9,45 733.7,44.8 733.5,44.9 733.8,45.1 733.5,45.4 733.7,45.5 
				733.9,45.3 734.1,45.5 734.2,45.4 734,45.1 			"/>
		</g>
	</g>
</g>
<g>
	<g>
		
			<linearGradient id="SVGID_1_" gradientUnits="userSpaceOnUse" x1="337.8507" y1="-89.6818" x2="296.2607" y2="-162.4719" gradientTransform="matrix(1 0 0 -1 0 -61.8801)">
			<stop  offset="0" style="stop-color:#00A7E1"/>
			<stop  offset="0.12" style="stop-color:#03A1DE"/>
			<stop  offset="0.29" style="stop-color:#0A8FD6"/>
			<stop  offset="0.48" style="stop-color:#1571CA"/>
			<stop  offset="0.69" style="stop-color:#2547B8"/>
			<stop  offset="0.92" style="stop-color:#3A13A1"/>
			<stop  offset="1" style="stop-color:#410099"/>
		</linearGradient>
		<path class="st2" d="M287.9,100.9c-2.2,0-4-1.6-4.2-3.8c-0.2-2.3,1.5-4.4,3.8-4.6c12.8-1.2,24.1-8.7,30.3-19.8
			c1.1-2,3.7-2.8,5.8-1.6c2.1,1.1,2.8,3.7,1.7,5.8c-7.6,13.6-21.4,22.6-36.9,24.1C288.2,100.9,288.1,100.9,287.9,100.9z"/>
		
			<linearGradient id="SVGID_00000117658477145289498880000011236624797281539485_" gradientUnits="userSpaceOnUse" x1="294.4944" y1="-65.2683" x2="253.0045" y2="-137.8683" gradientTransform="matrix(1 0 0 -1 0 -61.8801)">
			<stop  offset="0" style="stop-color:#00A7E1"/>
			<stop  offset="0.12" style="stop-color:#03A1DE"/>
			<stop  offset="0.29" style="stop-color:#0A8FD6"/>
			<stop  offset="0.48" style="stop-color:#1571CA"/>
			<stop  offset="0.69" style="stop-color:#2547B8"/>
			<stop  offset="0.92" style="stop-color:#3A13A1"/>
			<stop  offset="1" style="stop-color:#410099"/>
		</linearGradient>
		<path style="fill:url(#SVGID_00000117658477145289498880000011236624797281539485_);" d="M273.8,100c-0.3,0-0.6,0-1-0.1
			c-10.3-2.4-19.7-8.2-26.4-16.4c-6.8-8.4-10.5-18.9-10.5-29.7s3.7-21.3,10.5-29.7c6.7-8.2,16.1-14.1,26.4-16.4
			c2.3-0.5,4.6,0.9,5.1,3.2s-0.9,4.5-3.2,5.1c-8.5,1.9-16.2,6.7-21.7,13.5c-5.7,7-8.6,15.4-8.6,24.4s3,17.4,8.6,24.4
			c5.5,6.8,13.2,11.6,21.7,13.5c2.3,0.5,3.7,2.8,3.2,5.1C277.5,98.7,275.8,100,273.8,100L273.8,100z"/>
		
			<linearGradient id="SVGID_00000016033599338010865000000005834596927966411145_" gradientUnits="userSpaceOnUse" x1="310.3252" y1="-74.2016" x2="268.9952" y2="-146.5216" gradientTransform="matrix(1 0 0 -1 0 -61.8801)">
			<stop  offset="0" style="stop-color:#00A7E1"/>
			<stop  offset="0.12" style="stop-color:#03A1DE"/>
			<stop  offset="0.29" style="stop-color:#0A8FD6"/>
			<stop  offset="0.48" style="stop-color:#1571CA"/>
			<stop  offset="0.69" style="stop-color:#2547B8"/>
			<stop  offset="0.92" style="stop-color:#3A13A1"/>
			<stop  offset="1" style="stop-color:#410099"/>
		</linearGradient>
		<path style="fill:url(#SVGID_00000016033599338010865000000005834596927966411145_);" d="M321.6,37.2c-1.5,0-2.9-0.8-3.7-2.2
			c-6.2-11.2-17.6-18.6-30.3-19.8c-2.3-0.2-4.1-2.3-3.8-4.6c0.2-2.3,2.3-4,4.7-3.8c15.5,1.5,29.3,10.5,36.9,24.1
			c1.1,2,0.4,4.6-1.7,5.8C323,37,322.3,37.2,321.6,37.2L321.6,37.2z"/>
		
			<linearGradient id="SVGID_00000008132375625235263270000001542519478127873702_" gradientUnits="userSpaceOnUse" x1="316.2425" y1="-133.4268" x2="242.9725" y2="-133.4268" gradientTransform="matrix(1 0 0 -1 0 -61.8801)">
			<stop  offset="0" style="stop-color:#FFC600"/>
			<stop  offset="0.46" style="stop-color:#F19345"/>
			<stop  offset="0.82" style="stop-color:#E77073"/>
			<stop  offset="1" style="stop-color:#E36386"/>
		</linearGradient>
		<path style="fill:url(#SVGID_00000008132375625235263270000001542519478127873702_);" d="M283.2,87.1c-15.8,0-29.5-10.7-33.2-25.9
			c-0.5-2.3,0.9-4.5,3.1-5.1c2.3-0.5,4.6,0.8,5.1,3.1c2.8,11.4,13,19.4,24.9,19.4c9.3,0,17.9-5,22.5-13.1c1.1-2,3.7-2.8,5.8-1.6
			c2.1,1.1,2.8,3.7,1.7,5.7C307,80.4,295.6,87.1,283.2,87.1L283.2,87.1z"/>
		
			<linearGradient id="SVGID_00000136386727951181876410000016262077978915969726_" gradientUnits="userSpaceOnUse" x1="316.2425" y1="-98.0301" x2="242.9725" y2="-98.0301" gradientTransform="matrix(1 0 0 -1 0 -61.8801)">
			<stop  offset="0" style="stop-color:#FFC600"/>
			<stop  offset="0.46" style="stop-color:#F19345"/>
			<stop  offset="0.82" style="stop-color:#E77073"/>
			<stop  offset="1" style="stop-color:#E36386"/>
		</linearGradient>
		<path style="fill:url(#SVGID_00000136386727951181876410000016262077978915969726_);" d="M254.1,51.7c-0.3,0-0.7,0-1-0.1
			c-2.3-0.5-3.7-2.8-3.1-5.1c3.7-15.3,17.4-25.9,33.2-25.9c12.4,0,23.9,6.7,29.9,17.5c1.1,2,0.4,4.6-1.7,5.8c-2,1.1-4.6,0.4-5.8-1.6
			C301.1,34,292.5,29,283.2,29c-11.9,0-22.1,8-24.9,19.5C257.8,50.4,256,51.7,254.1,51.7z"/>
		
			<linearGradient id="SVGID_00000076586088064613449140000015958711579111380649_" gradientUnits="userSpaceOnUse" x1="310.7125" y1="-115.7801" x2="275.0825" y2="-115.7801" gradientTransform="matrix(1 0 0 -1 0 -61.8801)">
			<stop  offset="0" style="stop-color:#00A7E1"/>
			<stop  offset="0.23" style="stop-color:#0FA9B5"/>
			<stop  offset="0.74" style="stop-color:#33AD47"/>
			<stop  offset="0.87" style="stop-color:#3DAE2B"/>
		</linearGradient>
		<path style="fill:url(#SVGID_00000076586088064613449140000015958711579111380649_);" d="M282.7,72.5H278c-2.4,0-4.3-1.9-4.3-4.2
			s1.9-4.2,4.3-4.2h4.7c5.7,0,10.3-4.6,10.3-10.2s-4.6-10.2-10.3-10.2H278c-2.3,0-4.3-1.9-4.3-4.2s1.9-4.2,4.3-4.2h4.7
			c10.4,0,18.8,8.4,18.8,18.7S293.1,72.5,282.7,72.5L282.7,72.5z"/>
	</g>
	<g>
		<g>
			<path class="st0" d="M343.4,41.8c-1.4,0-2.5-0.4-3.4-1.2s-1.3-1.9-1.3-3.2s0.4-2.4,1.3-3.2c0.8-0.8,2-1.2,3.4-1.2
				c1.2,0,2.3,0.3,3.1,0.9c0.8,0.6,1.3,1.5,1.5,2.5c0,0.1,0,0.2-0.1,0.2s-0.1,0.1-0.3,0.1h-2c-0.2,0-0.3-0.1-0.4-0.3
				c-0.3-0.8-0.9-1.2-1.7-1.2c-0.6,0-1.1,0.2-1.4,0.6c-0.4,0.4-0.5,0.9-0.5,1.5s0.2,1.2,0.5,1.5c0.4,0.4,0.8,0.6,1.4,0.6
				c0.9,0,1.5-0.4,1.7-1.2c0-0.2,0.2-0.3,0.4-0.3h2.1c0.1,0,0.2,0,0.3,0.1c0.1,0.1,0.1,0.1,0.1,0.2c-0.2,1.1-0.7,1.9-1.5,2.5
				C345.7,41.5,344.7,41.8,343.4,41.8L343.4,41.8z"/>
			<path class="st0" d="M350.2,41.5c-0.1,0-0.2-0.1-0.2-0.2v-8.1c0-0.1,0.1-0.2,0.2-0.2h1.2c0.1,0,0.2,0.1,0.2,0.2v8.1
				c0,0.1-0.1,0.2-0.2,0.2C351.4,41.5,350.2,41.5,350.2,41.5z"/>
			<path class="st0" d="M361.1,40.7c-0.7,0.7-1.6,1-2.8,1c-1.1,0-2.1-0.3-2.8-1s-1.1-1.6-1.1-2.8v-4.6c0-0.1,0.1-0.2,0.2-0.2h1.2
				c0.1,0,0.2,0.1,0.2,0.2v4.6c0,0.7,0.2,1.3,0.6,1.8c0.4,0.4,1,0.7,1.7,0.7s1.3-0.2,1.7-0.7s0.6-1,0.6-1.8v-4.6
				c0-0.1,0.1-0.2,0.2-0.2h1.2c0.1,0,0.2,0.1,0.2,0.2v4.6C362.2,39,361.8,40,361.1,40.7L361.1,40.7z"/>
			<path class="st0" d="M368.1,33.1c1.4,0,2.6,0.4,3.4,1.2c0.9,0.8,1.3,1.8,1.3,3.1s-0.4,2.3-1.3,3.1s-2,1.2-3.4,1.2h-3
				c-0.1,0-0.2-0.1-0.2-0.2v-8.1c0-0.1,0.1-0.2,0.2-0.2L368.1,33.1L368.1,33.1z M367.9,40.2c1,0,1.8-0.3,2.4-0.8s0.9-1.2,0.9-2.1
				s-0.3-1.5-0.9-2.1c-0.6-0.5-1.4-0.8-2.4-0.8h-1.5v5.8L367.9,40.2L367.9,40.2z"/>
			<path class="st0" d="M374.3,41.5c-0.1,0-0.2-0.1-0.1-0.2l3.7-8.1c0-0.1,0.1-0.1,0.2-0.1h1.1c0.1,0,0.2,0,0.2,0.1l3.7,8.1
				c0.1,0.1,0,0.2-0.1,0.2h-1.3c-0.1,0-0.2,0-0.2-0.1l-0.8-1.8h-4.1l-0.8,1.8c0,0.1-0.1,0.1-0.2,0.1L374.3,41.5L374.3,41.5z
				 M377.2,38.2h3l-1.5-3.4L377.2,38.2z"/>
			<path class="st0" d="M388.4,33.1c1.4,0,2.6,0.4,3.4,1.2c0.9,0.8,1.3,1.8,1.3,3.1s-0.4,2.3-1.3,3.1s-2,1.2-3.4,1.2h-3
				c-0.1,0-0.2-0.1-0.2-0.2v-8.1c0-0.1,0.1-0.2,0.2-0.2L388.4,33.1L388.4,33.1z M388.2,40.2c1,0,1.8-0.3,2.4-0.8s0.9-1.2,0.9-2.1
				s-0.3-1.5-0.9-2.1c-0.6-0.5-1.4-0.8-2.4-0.8h-1.5v5.8L388.2,40.2L388.2,40.2z"/>
			<path class="st0" d="M343.4,54.2c-1.4,0-2.5-0.4-3.4-1.2s-1.3-1.9-1.3-3.2s0.4-2.4,1.3-3.2c0.8-0.8,2-1.2,3.4-1.2
				c1.2,0,2.3,0.3,3.1,0.9c0.8,0.6,1.3,1.5,1.5,2.5c0,0.1,0,0.2-0.1,0.2s-0.1,0.1-0.3,0.1h-2c-0.2,0-0.3-0.1-0.4-0.3
				c-0.3-0.8-0.9-1.2-1.7-1.2c-0.6,0-1.1,0.2-1.4,0.6c-0.4,0.4-0.5,0.9-0.5,1.5s0.2,1.2,0.5,1.5c0.4,0.4,0.8,0.6,1.4,0.6
				c0.9,0,1.5-0.4,1.7-1.2c0-0.2,0.2-0.3,0.4-0.3h2.1c0.1,0,0.2,0,0.3,0.1c0.1,0.1,0.1,0.1,0.1,0.2c-0.2,1.1-0.7,1.9-1.5,2.5
				C345.7,53.9,344.7,54.2,343.4,54.2L343.4,54.2z"/>
			<path class="st0" d="M357.5,53.8c0.1,0.1,0.1,0.1,0,0.2l-0.1,0.1h-1.5c-0.1,0-0.1,0-0.2-0.1l-2.4-2.8h-1.7V54
				c0,0.1-0.1,0.2-0.2,0.2h-1.2c-0.1,0-0.2-0.1-0.2-0.2v-8.1c0-0.1,0.1-0.2,0.2-0.2h3.5c1,0,1.8,0.2,2.4,0.8c0.6,0.5,0.9,1.2,0.9,2
				c0,0.7-0.2,1.2-0.5,1.6c-0.3,0.4-0.8,0.7-1.5,0.9C355,50.9,357.5,53.8,357.5,53.8z M351.6,46.9v2.8h1.9c0.6,0,1.1-0.1,1.5-0.4
				c0.4-0.3,0.6-0.6,0.6-1s-0.2-0.8-0.5-1s-0.8-0.4-1.4-0.4L351.6,46.9L351.6,46.9z"/>
			<path class="st0" d="M366,46.7c0,0.1-0.1,0.2-0.2,0.2h-4.6v2.3h4.1c0.1,0,0.2,0.1,0.2,0.2v1c0,0.1-0.1,0.2-0.2,0.2h-4.1v2.2h4.6
				c0.1,0,0.2,0.1,0.2,0.2v1c0,0.1-0.1,0.2-0.2,0.2h-6c-0.1,0-0.2-0.1-0.2-0.2v-8.1c0-0.1,0.1-0.2,0.2-0.2h6c0.1,0,0.2,0.1,0.2,0.2
				V46.7L366,46.7z"/>
			<path class="st0" d="M368.1,54c-0.1,0-0.2-0.1-0.1-0.2l3.7-8.1c0-0.1,0.1-0.1,0.2-0.1h1.1c0.1,0,0.2,0,0.2,0.1l3.7,8.1
				c0.1,0.1,0,0.2-0.1,0.2h-1.3c-0.1,0-0.2,0-0.2-0.1l-0.8-1.8h-4.1l-0.8,1.8c0,0.1-0.1,0.1-0.2,0.1L368.1,54L368.1,54z M371,50.7h3
				l-1.5-3.4L371,50.7z"/>
			<path class="st0" d="M384.6,45.6c0.1,0,0.2,0.1,0.2,0.2v1c0,0.1-0.1,0.2-0.2,0.2h-2.9v6.9c0,0.1-0.1,0.2-0.2,0.2h-1.2
				c-0.1,0-0.2-0.1-0.2-0.2V47h-2.9c-0.1,0-0.2-0.1-0.2-0.2v-1c0-0.1,0.1-0.2,0.2-0.2H384.6z"/>
			<path class="st0" d="M387.1,54c-0.1,0-0.2-0.1-0.2-0.2v-8.1c0-0.1,0.1-0.2,0.2-0.2h1.2c0.1,0,0.2,0.1,0.2,0.2v8.1
				c0,0.1-0.1,0.2-0.2,0.2C388.3,54,387.1,54,387.1,54z"/>
			<path class="st0" d="M394.6,54c-0.1,0-0.2,0-0.2-0.1l-3.8-8.1c-0.1-0.1,0-0.2,0.1-0.2h1.3c0.1,0,0.2,0,0.2,0.1l2.9,6.3l2.9-6.3
				c0-0.1,0.1-0.1,0.2-0.1h1.3c0.1,0,0.2,0.1,0.1,0.2l-3.8,8.1c0,0.1-0.1,0.1-0.2,0.1H394.6L394.6,54z"/>
			<path class="st0" d="M400.3,54c-0.1,0-0.2-0.1-0.1-0.2l3.7-8.1c0-0.1,0.1-0.1,0.2-0.1h1.1c0.1,0,0.2,0,0.2,0.1l3.7,8.1
				c0.1,0.1,0,0.2-0.1,0.2h-1.3c-0.1,0-0.2,0-0.2-0.1l-0.8-1.8h-4.1l-0.8,1.8c0,0.1-0.1,0.1-0.2,0.1L400.3,54L400.3,54z M403.2,50.7
				h2.9l-1.5-3.4L403.2,50.7z"/>
			<path class="st0" d="M342.6,58c1.5,0,2.7,0.4,3.5,1.1c0.9,0.8,1.3,1.8,1.3,3.1s-0.4,2.3-1.3,3.1c-0.8,0.8-2,1.1-3.5,1.1h-3.4
				c-0.2,0-0.3-0.1-0.3-0.3v-7.8c0-0.2,0.1-0.3,0.3-0.3L342.6,58L342.6,58z M342.6,64.2c0.6,0,1.1-0.2,1.5-0.5
				c0.4-0.4,0.6-0.8,0.6-1.5s-0.2-1.1-0.6-1.5s-0.9-0.5-1.5-0.5h-1v4H342.6z"/>
			<path class="st0" d="M349.7,66.5c-0.1,0-0.2-0.1-0.2-0.2v-8.1c0-0.1,0.1-0.2,0.2-0.2h1.2c0.1,0,0.2,0.1,0.2,0.2v8.1
				c0,0.1-0.1,0.2-0.2,0.2H349.7z"/>
			<path class="st0" d="M358.2,66.6c-1.4,0-2.5-0.4-3.3-1.2c-0.8-0.8-1.2-1.9-1.2-3.2s0.4-2.4,1.2-3.2c0.8-0.8,1.9-1.2,3.3-1.2
				c1,0,1.9,0.2,2.7,0.8c0.8,0.5,1.3,1.2,1.5,2c0,0.1,0,0.2-0.1,0.2H361c-0.1,0-0.2,0-0.2-0.2c-0.2-0.4-0.5-0.8-1-1.1
				s-1-0.4-1.6-0.4c-0.9,0-1.6,0.3-2.2,0.8c-0.5,0.5-0.8,1.3-0.8,2.2s0.3,1.6,0.8,2.2c0.6,0.6,1.3,0.8,2.2,0.8
				c0.7,0,1.2-0.2,1.7-0.5s0.8-0.8,1-1.4h-2.6c-0.1,0-0.2-0.1-0.2-0.2v-1c0-0.1,0.1-0.2,0.2-0.2h4.1c0.1,0,0.2,0.1,0.2,0.2
				c0,1.4-0.4,2.5-1.2,3.3S359.5,66.6,358.2,66.6L358.2,66.6z"/>
			<path class="st0" d="M365.3,66.5c-0.1,0-0.2-0.1-0.2-0.2v-8.1c0-0.1,0.1-0.2,0.2-0.2h1.2c0.1,0,0.2,0.1,0.2,0.2v8.1
				c0,0.1-0.1,0.2-0.2,0.2H365.3z"/>
			<path class="st0" d="M376.2,58c0.1,0,0.2,0.1,0.2,0.2v1c0,0.1-0.1,0.2-0.2,0.2h-2.9v6.9c0,0.1-0.1,0.2-0.2,0.2h-1.2
				c-0.1,0-0.2-0.1-0.2-0.2v-6.9h-2.9c-0.1,0-0.2-0.1-0.2-0.2v-1c0-0.1,0.1-0.2,0.2-0.2H376.2z"/>
			<path class="st0" d="M376.9,66.5c-0.1,0-0.2-0.1-0.1-0.2l3.7-8.1c0-0.1,0.1-0.1,0.2-0.1h1.1c0.1,0,0.2,0,0.2,0.1l3.7,8.1
				c0.1,0.1,0,0.2-0.1,0.2h-1.3c-0.1,0-0.2,0-0.2-0.1l-0.8-1.8h-4.1l-0.8,1.8c0,0.1-0.1,0.1-0.2,0.1H376.9L376.9,66.5z M379.7,63.2
				h2.9l-1.5-3.4L379.7,63.2z"/>
			<path class="st0" d="M389.3,65.2h4.4c0.1,0,0.2,0.1,0.2,0.2v0.9c0,0.1-0.1,0.2-0.2,0.2h-5.8c-0.1,0-0.2-0.1-0.2-0.2v-8.1
				c0-0.1,0.1-0.2,0.2-0.2h1.2c0.1,0,0.2,0.1,0.2,0.2L389.3,65.2L389.3,65.2L389.3,65.2z"/>
		</g>
		<g>
			<path class="st0" d="M341,75.2c-0.6,0-1.2-0.2-1.6-0.6s-0.6-0.9-0.6-1.5s0.2-1.1,0.6-1.5s0.9-0.6,1.6-0.6c0.5,0,1,0.1,1.4,0.4
				s0.6,0.6,0.8,1c0,0.1,0,0.1,0,0.1h-0.1h-1c-0.1,0-0.1,0-0.2-0.1c-0.1-0.3-0.4-0.4-0.8-0.4c-0.3,0-0.5,0.1-0.7,0.3
				c-0.2,0.2-0.3,0.4-0.3,0.7s0.1,0.5,0.3,0.7s0.4,0.3,0.7,0.3c0.1,0,0.3,0,0.4-0.1s0.2-0.2,0.3-0.3h-0.6c-0.1,0-0.2-0.1-0.2-0.1V73
				c0-0.1,0.1-0.1,0.2-0.1h1.8c0.1,0,0.2,0.1,0.2,0.1c0,0.6-0.2,1.2-0.6,1.6C342.2,75,341.6,75.2,341,75.2L341,75.2z"/>
			<path class="st0" d="M347.8,74.7c-0.3,0.3-0.8,0.5-1.5,0.5c-0.6,0-1.1-0.2-1.5-0.5c-0.3-0.3-0.5-0.8-0.5-1.4v-2
				c0-0.1,0.1-0.2,0.2-0.2h0.9c0.1,0,0.2,0.1,0.2,0.2v2c0,0.2,0.1,0.4,0.2,0.6c0.1,0.1,0.3,0.2,0.5,0.2s0.4-0.1,0.5-0.2
				s0.2-0.3,0.2-0.6v-2c0-0.1,0-0.2,0.1-0.2h1c0.1,0,0.2,0.1,0.2,0.2v2C348.3,74,348.1,74.4,347.8,74.7L347.8,74.7z"/>
			<path class="st0" d="M349.4,75.1c-0.1,0-0.2-0.1-0.1-0.2l1.6-3.6c0-0.1,0.1-0.1,0.2-0.1h0.9c0.1,0,0.1,0,0.2,0.1l1.6,3.6
				c0,0.1,0,0.1,0,0.1l-0.1,0.1h-1c-0.1,0-0.2,0-0.2-0.1l-0.2-0.5h-1.5l-0.2,0.5c0,0.1-0.1,0.1-0.2,0.1H349.4L349.4,75.1z
				 M351.1,73.6h0.8l-0.4-1L351.1,73.6z"/>
			<path class="st0" d="M356.5,71.2c0.7,0,1.2,0.2,1.6,0.5s0.6,0.8,0.6,1.4s-0.2,1.1-0.6,1.4s-0.9,0.5-1.6,0.5H355
				c-0.1,0-0.2-0.1-0.2-0.2v-3.6c0-0.1,0-0.2,0.2-0.2L356.5,71.2L356.5,71.2z M356.5,74.1c0.3,0,0.5-0.1,0.7-0.2
				c0.2-0.2,0.3-0.4,0.3-0.7s-0.1-0.5-0.3-0.7c-0.2-0.2-0.4-0.2-0.7-0.2h-0.4v1.9h0.4V74.1z"/>
			<path class="st0" d="M359.8,75.1c-0.1,0-0.2-0.1-0.1-0.2l1.6-3.6c0-0.1,0.1-0.1,0.2-0.1h0.9c0.1,0,0.1,0,0.2,0.1l1.6,3.6
				c0,0.1,0,0.1,0,0.1l-0.1,0.1h-1c-0.1,0-0.1,0-0.2-0.1l-0.2-0.5h-1.5L361,75c0,0.1-0.1,0.1-0.2,0.1H359.8L359.8,75.1z M361.5,73.6
				h0.8l-0.4-1L361.5,73.6z"/>
			<path class="st0" d="M366.4,74.1h1.8c0.1,0,0.1,0.1,0.1,0.2V75c0,0.1,0,0.2-0.1,0.2h-2.8c-0.1,0-0.2-0.1-0.2-0.2v-3.6
				c0-0.1,0.1-0.2,0.2-0.2h0.9c0.1,0,0.1,0.1,0.1,0.2V74.1L366.4,74.1L366.4,74.1z"/>
			<path class="st0" d="M369.4,75.1c-0.1,0-0.2-0.1-0.1-0.2l1.6-3.6c0-0.1,0.1-0.1,0.2-0.1h0.9c0.1,0,0.1,0,0.2,0.1l1.6,3.6
				c0,0.1,0,0.1,0,0.1l-0.1,0.1h-1c-0.1,0-0.1,0-0.2-0.1l-0.2-0.5h-1.5l-0.2,0.5c0,0.1-0.1,0.1-0.2,0.1H369.4L369.4,75.1z
				 M371.1,73.6h0.8l-0.4-1L371.1,73.6z"/>
			<path class="st0" d="M376.4,75.2c-0.5,0-0.9-0.1-1.2-0.4c-0.3-0.2-0.5-0.6-0.5-1c0-0.1,0-0.2,0.1-0.2h0.9c0.1,0,0.1,0,0.2,0.1
				c0.1,0.2,0.2,0.4,0.5,0.4c0.1,0,0.3-0.1,0.4-0.2s0.1-0.2,0.1-0.4v-2.2c0-0.1,0.1-0.2,0.2-0.2h0.9c0.1,0,0.2,0.1,0.2,0.2v2.2
				c0,0.6-0.1,1-0.5,1.3C377.4,75.1,377,75.2,376.4,75.2L376.4,75.2z"/>
			<path class="st0" d="M379.3,75.1c-0.1,0-0.2-0.1-0.1-0.2l1.6-3.6c0-0.1,0.1-0.1,0.2-0.1h0.9c0.1,0,0.1,0,0.2,0.1l1.5,3.7
				c0,0.1,0,0.1,0,0.1l-0.1,0.1h-1c-0.1,0-0.1,0-0.2-0.1l-0.2-0.5h-1.5l-0.2,0.5c0,0.1-0.1,0.1-0.2,0.1L379.3,75.1L379.3,75.1z
				 M381,73.6h0.8l-0.4-1L381,73.6z"/>
			<path class="st0" d="M388.5,75C388.5,75.1,388.5,75.1,388.5,75l-0.1,0.2h-1.1c-0.1,0-0.1,0-0.2-0.1l-0.7-1h-0.5V75
				c0,0.1-0.1,0.2-0.1,0.2h-0.9c-0.1,0-0.2-0.1-0.2-0.2v-3.6c0-0.1,0-0.2,0.2-0.2h1.7c0.6,0,1,0.1,1.3,0.4s0.5,0.6,0.5,1.1
				c0,0.6-0.2,0.9-0.6,1.2L388.5,75L388.5,75z M386,72.2v0.9h0.5c0.4,0,0.6-0.2,0.6-0.4s-0.2-0.4-0.6-0.4
				C386.5,72.2,386,72.2,386,72.2z"/>
			<path class="st0" d="M389.6,75.1c-0.1,0-0.2-0.1-0.1-0.2l1.6-3.6c0-0.1,0.1-0.1,0.2-0.1h0.9c0.1,0,0.1,0,0.2,0.1l1.6,3.6
				c0,0.1,0,0.1,0,0.1l-0.1,0.1h-1c-0.1,0-0.1,0-0.2-0.1l-0.2-0.5H391l-0.2,0.5c0,0.1-0.1,0.1-0.2,0.1H389.6L389.6,75.1z
				 M391.3,73.6h0.8l-0.4-1L391.3,73.6z"/>
		</g>
	</g>
</g>
<g>
	<path class="st8" d="M99.9,20.1c3,0,5.5,0.8,7.3,2.4s2.7,3.8,2.7,6.5s-0.9,4.9-2.7,6.5c-1.8,1.6-4.2,2.4-7.3,2.4h-6.5
		c-0.3,0-0.5-0.2-0.5-0.5V20.6c0-0.3,0.2-0.5,0.5-0.5H99.9z M99.6,34.5c1.9,0,3.4-0.5,4.5-1.5c1.1-1,1.7-2.3,1.7-4
		c0-1.6-0.6-3-1.7-4s-2.6-1.5-4.5-1.5h-2.8v11H99.6z"/>
	<path class="st8" d="M116.2,22.7c-0.4,0.4-1,0.6-1.6,0.6s-1.2-0.2-1.6-0.6s-0.6-0.9-0.6-1.5s0.2-1.1,0.6-1.5s1-0.6,1.6-0.6
		s1.2,0.2,1.6,0.6s0.6,0.9,0.6,1.5C116.9,21.8,116.6,22.3,116.2,22.7 M113.2,37.9c-0.3,0-0.5-0.2-0.5-0.5V26.1
		c0-0.3,0.2-0.5,0.5-0.5h2.9c0.3,0,0.5,0.2,0.5,0.5v11.4c0,0.3-0.2,0.5-0.5,0.5L113.2,37.9L113.2,37.9z"/>
	<path class="st8" d="M125.1,38.3c-1.8,0-3.2-0.4-4.4-1.1c-1.1-0.7-1.8-1.7-2-2.9c-0.1-0.3,0.1-0.5,0.5-0.5h2.5
		c0.2,0,0.4,0.1,0.6,0.4c0.4,0.9,1.3,1.4,2.8,1.4c0.6,0,1.1-0.1,1.5-0.3s0.6-0.5,0.6-0.8c0-0.4-0.3-0.8-0.8-1s-1.2-0.3-2-0.4
		c-0.8-0.1-1.6-0.2-2.3-0.4c-0.8-0.2-1.4-0.6-2-1.1c-0.5-0.6-0.8-1.4-0.8-2.3c0-1.2,0.5-2.2,1.6-2.9c1-0.7,2.4-1.1,4.1-1.1
		c1.6,0,2.9,0.3,4,1s1.7,1.6,1.9,2.7c0.1,0.3-0.1,0.5-0.5,0.5h-2.5c-0.2,0-0.4-0.1-0.5-0.3c-0.2-0.4-0.4-0.7-0.9-0.9
		c-0.4-0.2-0.9-0.3-1.5-0.3s-1.1,0.1-1.4,0.3c-0.4,0.2-0.5,0.5-0.5,0.8c0,0.5,0.3,0.8,0.8,1c0.6,0.2,1.2,0.4,2,0.5s1.6,0.3,2.4,0.4
		c0.8,0.2,1.4,0.6,2,1.1c0.6,0.6,0.8,1.3,0.8,2.3c0,1.2-0.5,2.2-1.6,3C128.4,38,126.9,38.3,125.1,38.3"/>
	<path class="st8" d="M140.3,38.3c-1.7,0-3-0.5-3.9-1.4c-1-0.9-1.4-2.2-1.4-3.9v-4.4h-2.3c-0.3,0-0.5-0.2-0.5-0.5V26
		c0-0.3,0.2-0.5,0.5-0.5h2.3v-3.2c0-0.3,0.2-0.5,0.5-0.5h2.9c0.3,0,0.5,0.2,0.5,0.5v3.2h4c0.3,0,0.5,0.2,0.5,0.5v2.1
		c0,0.3-0.2,0.5-0.5,0.5h-4v4.3c0,0.6,0.2,1.2,0.6,1.5c0.4,0.4,0.9,0.6,1.5,0.6c0.7,0,1.3-0.1,1.9-0.2c0.3-0.1,0.5,0.1,0.6,0.4
		l0.3,2.2c0,0.3-0.1,0.5-0.4,0.6C142.2,38.2,141.2,38.3,140.3,38.3"/>
	<path class="st8" d="M156.2,25.4c0.3,0.1,0.4,0.3,0.4,0.6l-0.3,2.4c-0.1,0.3-0.2,0.4-0.6,0.4c-0.4-0.1-0.9-0.1-1.4-0.1
		c-1,0-1.8,0.3-2.4,0.9c-0.6,0.6-0.9,1.4-0.9,2.4v5.5c0,0.3-0.2,0.5-0.5,0.5h-2.8c-0.3,0-0.5-0.2-0.5-0.5v-8c0-0.7-0.3-1-1-1
		c-0.1,0-0.3,0-0.6,0.1c-0.4,0-0.6-0.1-0.6-0.4V26c0-0.3,0.1-0.5,0.4-0.6c0.6-0.2,1.2-0.3,1.8-0.3c1.5,0,2.6,0.6,3.1,1.7
		c1.1-1.2,2.4-1.7,4.1-1.7C155.1,25.2,155.7,25.2,156.2,25.4"/>
	<path class="st8" d="M162.3,22.7c-0.4,0.4-1,0.6-1.6,0.6s-1.2-0.2-1.6-0.6c-0.4-0.4-0.6-0.9-0.6-1.5s0.2-1.1,0.6-1.5
		c0.4-0.4,1-0.6,1.6-0.6s1.2,0.2,1.6,0.6c0.4,0.4,0.6,0.9,0.6,1.5C163,21.8,162.8,22.3,162.3,22.7 M159.3,37.9
		c-0.3,0-0.5-0.2-0.5-0.5V26.1c0-0.3,0.2-0.5,0.5-0.5h2.9c0.3,0,0.5,0.2,0.5,0.5v11.4c0,0.3-0.2,0.5-0.5,0.5L159.3,37.9L159.3,37.9z
		"/>
	<path class="st8" d="M172.5,38.3c-1.7,0-3-0.5-3.9-1.4c-1-0.9-1.4-2.2-1.4-3.9v-4.4h-2.3c-0.3,0-0.5-0.2-0.5-0.5V26
		c0-0.3,0.2-0.5,0.5-0.5h2.3v-3.2c0-0.3,0.2-0.5,0.5-0.5h2.9c0.3,0,0.5,0.2,0.5,0.5v3.2h4c0.3,0,0.5,0.2,0.5,0.5v2.1
		c0,0.3-0.2,0.5-0.5,0.5h-4v4.3c0,0.6,0.2,1.2,0.6,1.5c0.4,0.4,0.9,0.6,1.5,0.6c0.7,0,1.3-0.1,1.9-0.2c0.3-0.1,0.5,0.1,0.6,0.4
		l0.3,2.2c0,0.3-0.1,0.5-0.4,0.6C174.4,38.2,173.4,38.3,172.5,38.3"/>
	<path class="st8" d="M189.5,36.5c-1.3,1.2-3,1.8-5.1,1.8s-3.8-0.6-5.1-1.8s-1.9-2.8-1.9-4.8s0.6-3.6,1.9-4.8c1.3-1.2,3-1.8,5.1-1.8
		s3.8,0.6,5.1,1.8c1.3,1.2,1.9,2.8,1.9,4.8S190.8,35.3,189.5,36.5 M182,34.2c0.6,0.6,1.4,0.9,2.4,0.9s1.8-0.3,2.4-0.9
		c0.6-0.6,0.9-1.4,0.9-2.5c0-1-0.3-1.9-0.9-2.5c-0.6-0.6-1.4-0.9-2.4-0.9s-1.8,0.3-2.4,0.9c-0.6,0.6-0.9,1.5-0.9,2.5
		C181.1,32.8,181.4,33.6,182,34.2"/>
	<path class="st8" d="M102,61.8c-2.9,0-5.2-0.9-7-2.6c-1.8-1.7-2.6-4-2.6-6.8s0.9-5,2.6-6.7c1.8-1.7,4.1-2.6,7-2.6
		c2.3,0,4.3,0.6,6,1.9c1.6,1.2,2.7,2.9,3.1,5c0,0.3-0.1,0.5-0.5,0.5h-3.1c-0.3,0-0.5-0.1-0.6-0.4c-0.4-1.1-1-1.9-1.8-2.5
		s-1.9-0.9-3.1-0.9c-1.7,0-3,0.5-4.1,1.6c-1,1.1-1.5,2.4-1.5,4.2c0,1.7,0.5,3.1,1.5,4.2c1,1.1,2.4,1.6,4.1,1.6
		c1.2,0,2.2-0.3,3.1-0.9c0.9-0.6,1.5-1.4,1.8-2.5c0.1-0.3,0.3-0.4,0.6-0.4h3.1c0.4,0,0.5,0.2,0.5,0.5c-0.4,2.1-1.5,3.8-3.1,5
		C106.3,61.2,104.3,61.8,102,61.8"/>
	<path class="st8" d="M124.1,48.9c0.3,0.1,0.4,0.3,0.4,0.6l-0.3,2.4c-0.1,0.3-0.2,0.4-0.6,0.4c-0.4-0.1-0.9-0.1-1.4-0.1
		c-1,0-1.8,0.3-2.4,0.9c-0.6,0.6-0.9,1.4-0.9,2.4V61c0,0.3-0.2,0.5-0.5,0.5h-2.9c-0.3,0-0.5-0.2-0.5-0.5v-8c0-0.7-0.3-1-1-1
		c-0.1,0-0.3,0-0.6,0.1c-0.4,0-0.6-0.1-0.6-0.4v-2.1c0-0.3,0.1-0.5,0.4-0.6c0.6-0.2,1.2-0.3,1.8-0.3c1.5,0,2.6,0.6,3.1,1.7
		c1.1-1.2,2.4-1.7,4.1-1.7C123.1,48.6,123.7,48.7,124.1,48.9"/>
	<path class="st8" d="M132.7,61.8c-2.1,0-3.8-0.6-5.1-1.8s-1.9-2.8-1.9-4.8s0.6-3.6,1.9-4.8c1.2-1.2,2.9-1.8,4.9-1.8
		s3.7,0.6,4.8,1.8c1.2,1.2,1.8,2.8,1.8,4.7c0,0.1,0,0.3,0,0.4c0,0.2,0,0.3,0,0.4c-0.1,0.3-0.2,0.4-0.5,0.4h-9.1
		c0.2,0.8,0.6,1.4,1.2,1.8c0.6,0.4,1.3,0.7,2.2,0.7s1.6-0.3,2.1-0.8c0.2-0.2,0.4-0.3,0.6-0.3h2.8c0.2,0,0.3,0,0.4,0.1
		c0.1,0.1,0.1,0.2,0,0.4c-0.4,1.1-1.2,1.9-2.3,2.5C135.4,61.5,134.2,61.8,132.7,61.8 M129.4,54.2h6.1c0-0.8-0.3-1.4-0.8-1.9
		s-1.2-0.8-2.1-0.8c-0.8,0-1.5,0.3-2.1,0.8C129.9,52.7,129.5,53.4,129.4,54.2"/>
	<path class="st8" d="M157.6,61c0,0.3-0.1,0.5-0.4,0.5c-0.7,0.2-1.3,0.3-1.9,0.3c-1.6,0-2.6-0.5-3.2-1.6c-1.2,1-2.6,1.6-4.3,1.6
		c-2,0-3.6-0.6-4.8-1.8s-1.9-2.8-1.9-4.7c0-2,0.6-3.5,1.9-4.8c1.2-1.2,2.9-1.8,4.8-1.8c1.4,0,2.6,0.4,3.6,1.2v-0.3
		c0-0.3,0.2-0.5,0.5-0.5h2.8c0.3,0,0.5,0.2,0.5,0.5v8c0,0.7,0.3,1,0.8,1c0.3,0,0.6,0,0.8-0.1c0.3,0,0.5,0.1,0.5,0.4L157.6,61z
		 M148.2,58.8c1,0,1.7-0.3,2.3-1s0.9-1.5,0.9-2.6s-0.3-1.9-0.9-2.6c-0.6-0.7-1.4-1-2.3-1c-1,0-1.8,0.3-2.4,1
		c-0.6,0.7-0.9,1.5-0.9,2.6s0.3,1.9,0.9,2.6C146.4,58.5,147.2,58.8,148.2,58.8"/>
	<path class="st8" d="M166.5,61.8c-1.7,0-3-0.5-3.9-1.4c-1-0.9-1.4-2.2-1.4-3.9v-4.4h-2.3c-0.3,0-0.5-0.2-0.5-0.5v-2.1
		c0-0.3,0.2-0.5,0.5-0.5h2.3v-3.2c0-0.3,0.2-0.5,0.5-0.5h2.9c0.3,0,0.5,0.2,0.5,0.5V49h4c0.3,0,0.5,0.2,0.5,0.5v2.1
		c0,0.3-0.2,0.5-0.5,0.5h-4v4.3c0,0.6,0.2,1.2,0.6,1.5c0.4,0.4,0.9,0.6,1.5,0.6c0.7,0,1.3-0.1,1.9-0.2c0.3-0.1,0.5,0.1,0.6,0.4
		l0.3,2.2c0,0.3-0.1,0.5-0.4,0.6C168.4,61.7,167.4,61.8,166.5,61.8"/>
	<path class="st8" d="M175.7,46.2c-0.4,0.4-1,0.6-1.6,0.6s-1.2-0.2-1.6-0.6c-0.4-0.4-0.6-0.9-0.6-1.5s0.2-1.1,0.6-1.5
		c0.4-0.4,1-0.6,1.6-0.6s1.2,0.2,1.6,0.6c0.4,0.4,0.6,0.9,0.6,1.5S176.1,45.8,175.7,46.2 M172.6,61.4c-0.3,0-0.5-0.2-0.5-0.5V49.5
		c0-0.3,0.2-0.5,0.5-0.5h2.9c0.3,0,0.5,0.2,0.5,0.5v11.4c0,0.3-0.2,0.5-0.5,0.5H172.6z"/>
	<path class="st8" d="M183.6,61.4c-0.3,0-0.4-0.1-0.5-0.4l-5.3-11.4c-0.1-0.4,0-0.6,0.4-0.6h3c0.3,0,0.5,0.1,0.6,0.4l3.3,7.4
		l3.4-7.4c0.1-0.2,0.3-0.4,0.5-0.4h3c0.2,0,0.3,0.1,0.4,0.2c0.1,0.1,0.1,0.2,0,0.4L186.9,61c-0.1,0.2-0.3,0.4-0.5,0.4H183.6z"/>
	<path class="st8" d="M205.5,60c-1.3,1.2-3,1.8-5.1,1.8s-3.8-0.6-5.1-1.8s-1.9-2.8-1.9-4.8s0.6-3.6,1.9-4.8c1.3-1.2,3-1.8,5.1-1.8
		s3.8,0.6,5.1,1.8s1.9,2.8,1.9,4.8S206.8,58.8,205.5,60 M198,57.7c0.6,0.6,1.4,0.9,2.4,0.9s1.8-0.3,2.4-0.9c0.6-0.6,0.9-1.4,0.9-2.5
		c0-1-0.3-1.9-0.9-2.5c-0.6-0.6-1.4-0.9-2.4-0.9s-1.8,0.3-2.4,0.9c-0.6,0.6-0.9,1.5-0.9,2.5C197.1,56.3,197.4,57.1,198,57.7"/>
</g>
<linearGradient id="SVGID_00000115488501145846531720000003906588851626788764_" gradientUnits="userSpaceOnUse" x1="22.7613" y1="19.5066" x2="21.3991" y2="86.7988">
	<stop  offset="0" style="stop-color:#00A94F"/>
	<stop  offset="1" style="stop-color:#02A8E1"/>
</linearGradient>
<path style="fill:url(#SVGID_00000115488501145846531720000003906588851626788764_);" d="M5.8,32.7l14.3,21.4L5.8,75.5
	c-3.8,5.6,0.3,13.1,7,13.1c2.8,0,5.5-1.4,7-3.7l20.6-30.8L19.8,23.3c-1.6-2.3-4.2-3.7-7-3.7C6,19.6,2,27.1,5.8,32.7"/>
<g>
	
		<linearGradient id="SVGID_00000088134486953907906710000008833184311666543527_" gradientUnits="userSpaceOnUse" x1="59.828" y1="19.4589" x2="60.6453" y2="87.0235">
		<stop  offset="0" style="stop-color:#FFC20D"/>
		<stop  offset="1" style="stop-color:#F06386"/>
	</linearGradient>
	<path style="fill:url(#SVGID_00000088134486953907906710000008833184311666543527_);" d="M62.7,23.3L52.3,38.9L42.1,54.1l20.6,30.8
		c1.6,2.3,4.2,3.7,7,3.7c6.7,0,10.8-7.5,7-13.1L62.4,54.1l14.3-21.4c3.8-5.6-0.3-13.1-7-13.1C66.9,19.6,64.3,21,62.7,23.3"/>
</g>
<g>
	<g>
		<path class="st8" d="M92.4,81.8c0-3.7,2.7-6.3,6.5-6.3c2.9,0,5.3,1.7,6,3.9c0,0.1,0,0.2-0.2,0.2h-1.2c-0.1,0-0.2-0.1-0.2-0.2
			c-0.5-1.5-2.2-2.6-4.3-2.6c-2.9,0-4.9,2.1-4.9,4.9c0,2.9,2,4.9,4.9,4.9c2.4,0,4.1-1.7,4.4-3.8h-4.5c-0.1,0-0.2-0.1-0.2-0.2v-0.9
			c0-0.1,0.1-0.2,0.2-0.2h5.9c0.1,0,0.2,0.1,0.2,0.2c0,3.8-2.5,6.3-6.1,6.3C95,88.1,92.4,85.5,92.4,81.8z"/>
		<path class="st8" d="M117,88c-0.4,0.1-0.7,0.2-1.1,0.2c-1,0-1.7-0.5-1.9-1.3c-0.7,0.9-1.8,1.3-3.1,1.3c-2.2,0-3.7-1.5-3.7-3.7V80
			c0-0.1,0.1-0.2,0.2-0.2h1.1c0.1,0,0.2,0.1,0.2,0.2v4.5c0,1.5,1,2.5,2.5,2.5c1.6,0,2.7-1.1,2.7-2.8V80c0-0.1,0.1-0.2,0.2-0.2h1.1
			c0.1,0,0.2,0.1,0.2,0.2v6c0,0.6,0.3,1,0.7,1c0.2,0,0.4,0,0.7-0.1c0.1,0,0.2,0,0.3,0.2l0.1,0.8C117.2,87.9,117.1,87.9,117,88z"/>
		<path class="st8" d="M128.9,88c-0.4,0.1-0.7,0.2-1,0.2c-1,0-1.7-0.5-1.9-1.5c-0.8,0.9-1.9,1.5-3.1,1.5c-2.5,0-4.4-1.9-4.4-4.3
			c0-2.5,1.9-4.4,4.4-4.4c1.1,0,2.2,0.5,2.9,1.4V80c0-0.1,0.1-0.2,0.2-0.2h1.1c0.1,0,0.2,0.1,0.2,0.2v6c0,0.6,0.3,0.9,0.7,0.9
			c0.2,0,0.4,0,0.7-0.1c0.1,0,0.2,0,0.2,0.2l0.1,0.8C129.1,87.9,129,87.9,128.9,88z M125.8,83.8c0-1.8-1.3-3.1-2.9-3.1
			c-1.7,0-3,1.3-3,3.1c0,1.8,1.3,3.1,3,3.1S125.8,85.6,125.8,83.8z"/>
		<path class="st8" d="M140.9,88c-0.4,0.1-0.7,0.2-1,0.2c-1,0-1.7-0.5-1.9-1.5c-0.8,0.9-1.9,1.5-3.1,1.5c-2.5,0-4.4-1.9-4.4-4.3
			c0-2.5,1.9-4.4,4.4-4.4c1.1,0,2.2,0.5,2.9,1.3v-5.5c0-0.1,0.1-0.2,0.2-0.2h1.1c0.1,0,0.2,0.1,0.2,0.2v10.6c0,0.6,0.3,1,0.7,1
			c0.2,0,0.4,0,0.7-0.1c0.1,0,0.2,0,0.3,0.2l0.1,0.8C141,87.9,141,87.9,140.9,88z M137.8,83.8c0-1.8-1.3-3.1-2.9-3.1
			c-1.7,0-3,1.3-3,3.1c0,1.8,1.3,3.1,3,3.1C136.5,86.9,137.8,85.6,137.8,83.8z"/>
		<path class="st8" d="M152.8,88c-0.4,0.1-0.7,0.2-1,0.2c-1,0-1.7-0.5-1.9-1.5c-0.8,0.9-1.9,1.5-3.1,1.5c-2.5,0-4.4-1.9-4.4-4.3
			c0-2.5,1.9-4.4,4.4-4.4c1.1,0,2.2,0.5,2.9,1.4V80c0-0.1,0.1-0.2,0.2-0.2h1.1c0.1,0,0.2,0.1,0.2,0.2v6c0,0.6,0.3,0.9,0.7,0.9
			c0.2,0,0.4,0,0.7-0.1c0.1,0,0.2,0,0.2,0.2l0.1,0.8C153,87.9,152.9,87.9,152.8,88z M149.7,83.8c0-1.8-1.3-3.1-2.9-3.1
			c-1.7,0-3,1.3-3,3.1c0,1.8,1.3,3.1,3,3.1C148.4,86.9,149.7,85.6,149.7,83.8z"/>
		<path class="st8" d="M154.7,86.3v-11c0-0.1,0.1-0.2,0.2-0.2h1.1c0.1,0,0.2,0.1,0.2,0.2v10.6c0,0.6,0.3,1,0.7,1
			c0.2,0,0.4,0,0.7-0.1c0.1,0,0.2,0,0.3,0.2l0.1,0.8c0,0.1,0,0.2-0.2,0.2c-0.4,0.1-0.7,0.2-1,0.2C155.5,88.1,154.7,87.4,154.7,86.3z
			"/>
		<path class="st8" d="M169.7,88c-0.4,0.1-0.7,0.2-1,0.2c-1,0-1.7-0.5-1.9-1.5c-0.8,0.9-1.9,1.5-3.1,1.5c-2.5,0-4.4-1.9-4.4-4.3
			c0-2.5,1.9-4.4,4.4-4.4c1.1,0,2.2,0.5,2.9,1.4V80c0-0.1,0.1-0.2,0.2-0.2h1.1c0.1,0,0.2,0.1,0.2,0.2v6c0,0.6,0.3,0.9,0.7,0.9
			c0.2,0,0.4,0,0.7-0.1c0.1,0,0.2,0,0.2,0.2l0.1,0.8C169.9,87.9,169.8,87.9,169.7,88z M166.6,83.8c0-1.8-1.3-3.1-2.9-3.1
			c-1.7,0-3,1.3-3,3.1c0,1.8,1.3,3.1,3,3.1C165.3,86.9,166.6,85.6,166.6,83.8z"/>
		<path class="st8" d="M170,91.9l-0.1-0.8c0-0.1,0-0.2,0.2-0.2c1.3-0.1,1.8-0.6,1.8-2v-9c0-0.1,0.1-0.2,0.2-0.2h1.1
			c0.1,0,0.2,0.1,0.2,0.2v8.8c0,2.2-0.8,3.4-3,3.4C170.1,92.1,170,92,170,91.9z M171.5,76.7c0-0.5,0.5-0.9,1-0.9s1,0.4,1,0.9
			s-0.5,0.9-1,0.9C171.9,77.6,171.5,77.2,171.5,76.7z"/>
		<path class="st8" d="M185.9,88c-0.4,0.1-0.7,0.2-1,0.2c-1,0-1.7-0.5-1.9-1.5c-0.8,0.9-1.9,1.5-3.1,1.5c-2.5,0-4.4-1.9-4.4-4.3
			c0-2.5,1.9-4.4,4.4-4.4c1.1,0,2.2,0.5,2.9,1.4V80c0-0.1,0.1-0.2,0.2-0.2h1.1c0.1,0,0.2,0.1,0.2,0.2v6c0,0.6,0.3,0.9,0.7,0.9
			c0.2,0,0.4,0,0.7-0.1c0.1,0,0.2,0,0.2,0.2l0.1,0.8C186.1,87.9,186,87.9,185.9,88z M182.8,83.8c0-1.8-1.3-3.1-2.9-3.1
			c-1.7,0-3,1.3-3,3.1c0,1.8,1.3,3.1,3,3.1C181.5,86.9,182.8,85.6,182.8,83.8z"/>
		<path class="st8" d="M194.6,79.9l-0.1,0.9c0,0.1-0.1,0.2-0.3,0.2c-0.4-0.1-0.8-0.2-1.2-0.2c-1.7,0-2.9,1.2-2.9,3.1v3.8
			c0,0.1-0.1,0.2-0.2,0.2h-1.1c-0.1,0-0.2-0.1-0.2-0.2v-6c0-0.6-0.3-1-0.8-1c-0.2,0-0.4,0-0.6,0.1c-0.1,0-0.2,0-0.2-0.2v-0.8
			c0-0.1,0.1-0.2,0.2-0.2c0.3-0.1,0.7-0.2,1-0.2c1,0,1.7,0.6,1.8,1.5c0.7-1,1.8-1.5,3-1.5c0.5,0,1,0.1,1.4,0.2
			C194.6,79.7,194.6,79.8,194.6,79.9z"/>
		<path class="st8" d="M206.2,88c-0.4,0.1-0.7,0.2-1,0.2c-1,0-1.7-0.5-1.9-1.5c-0.8,0.9-1.9,1.5-3.1,1.5c-2.5,0-4.4-1.9-4.4-4.3
			c0-2.5,1.9-4.4,4.4-4.4c1.1,0,2.2,0.5,2.9,1.4V80c0-0.1,0.1-0.2,0.2-0.2h1.1c0.1,0,0.2,0.1,0.2,0.2v6c0,0.6,0.3,0.9,0.7,0.9
			c0.2,0,0.4,0,0.7-0.1c0.1,0,0.2,0,0.2,0.2l0.1,0.8C206.4,87.9,206.3,87.9,206.2,88z M203.1,83.8c0-1.8-1.3-3.1-2.9-3.1
			c-1.7,0-3,1.3-3,3.1c0,1.8,1.3,3.1,3,3.1C201.8,86.9,203.1,85.6,203.1,83.8z"/>
	</g>
</g>
<g>
	<rect x="93" y="67.2" class="st11" width="3.8" height="3.8"/>
	<rect x="99" y="67.2" class="st12" width="3.8" height="3.8"/>
	<rect x="105.1" y="67.2" class="st13" width="3.8" height="3.8"/>
	<rect x="111.1" y="67.2" class="st14" width="3.8" height="3.8"/>
	<rect x="123.2" y="67.2" class="st14" width="3.8" height="3.8"/>
	<rect x="117.1" y="67.2" class="st15" width="3.8" height="3.8"/>
</g>
</svg>
